<svg width="24" height="24" viewBox="0 0 24 24" fill="none" xmlns="http://www.w3.org/2000/svg">
<path d="M18.13 5.59757V20.087C18.13 20.7976 17.5555 21.3742 16.8449 21.3742H5.9023C5.19378 21.3742 4.61719 20.7976 4.61719 20.087V18.7508H14.2215C14.9321 18.7508 15.5087 18.1742 15.5087 17.4657V4.3125H16.8449C17.5555 4.3125 18.13 4.88909 18.13 5.59757Z" fill="#E4BD6D" stroke="#29292B" stroke-width="0.8"/>
<path d="M16.4709 18.7925L16.5993 18.4137C16.2787 18.305 15.9306 18.4771 15.8222 18.7978C15.8222 18.7979 15.8222 18.7979 15.8222 18.798L15.4409 19.9257L15.4409 19.9258C15.3327 20.2461 15.5043 20.594 15.8253 20.7025L15.9533 20.3235M16.4709 18.7925L16.5988 18.4136C16.9199 18.522 17.0914 18.8699 16.9832 19.1902L16.9832 19.1904L16.602 20.3179C16.602 20.318 16.6019 20.3181 16.6019 20.3182C16.494 20.6378 16.1466 20.8115 15.8247 20.7023L15.9533 20.3235M16.4709 18.7925C16.3597 18.7548 16.2388 18.8146 16.2011 18.9259L15.8199 20.0538C15.7822 20.1651 15.8419 20.2859 15.9533 20.3235M16.4709 18.7925C16.5822 18.8302 16.6419 18.9509 16.6043 19.0623L16.223 20.1901C16.1855 20.3011 16.0648 20.3613 15.9533 20.3235" fill="#F2F2F7" stroke="#29292B" stroke-width="0.8"/>
<path d="M15.5059 2.97314V17.4629C15.5059 18.1729 14.9303 18.7485 14.2202 18.7485H3.27783C2.56779 18.7485 1.99219 18.1729 1.99219 17.4629V2.97314C1.99219 2.26311 2.56779 1.6875 3.27783 1.6875H14.2203C14.9303 1.6875 15.5059 2.26307 15.5059 2.97314Z" fill="#98C1D5" stroke="#29292B" stroke-width="0.8"/>
<path d="M19.9492 5.17216L19.8211 5.55109L20.2 5.67919L21.4665 6.10728L21.8454 6.23537L21.9735 5.85644L22.3369 4.78136C22.3369 4.78136 22.3369 4.78135 22.3369 4.78135C22.5256 4.22332 22.2282 3.61596 21.6679 3.42655L21.6679 3.42654C21.093 3.23225 20.4973 3.55075 20.3126 4.09707C20.3126 4.09707 20.3126 4.09708 20.3126 4.09709L19.9492 5.17216Z" fill="#F2F2F7" stroke="#29292B" stroke-width="0.8"/>
<path d="M20.4594 4.92024L20.4594 4.92024C19.957 4.75044 19.4122 5.02002 19.2424 5.52236L16.0906 14.8463C15.6368 16.1887 15.6671 17.6521 15.8508 18.9938L15.8844 19.2391L16.119 19.3184L16.4345 19.4251L16.6691 19.5044L16.8447 19.3297C17.8048 18.3747 18.7168 17.2298 19.1705 15.8875L22.3223 6.56348L22.3223 6.56346C22.4921 6.0611 22.2225 5.51622 21.7202 5.34642L21.5921 5.72535L21.7202 5.34642L20.4594 4.92024Z" fill="#6B20F7" stroke="#29292B" stroke-width="0.8"/>
<path d="M19.136 15.9843L19.2725 15.6013L18.8873 15.4711L16.5691 14.6875L16.1839 14.5573L16.06 14.9446C15.6392 16.2602 15.6709 17.6856 15.8503 18.9963L15.8839 19.2417L16.1185 19.321L16.434 19.4276L16.6687 19.507L16.8443 19.3323C17.7821 18.3993 18.6722 17.2854 19.136 15.9843Z" fill="#F2F2F7" stroke="#29292B" stroke-width="0.8"/>
<path d="M13.2052 5.5415H4.29089C4.17326 5.5415 4.07812 5.3853 4.07812 5.19263C4.07812 4.99995 4.1733 4.84375 4.29089 4.84375H13.2052C13.3228 4.84375 13.418 4.99995 13.418 5.19263C13.418 5.3853 13.3228 5.5415 13.2052 5.5415Z" fill="#29292B"/>
<path d="M11.371 8.12354H4.29089C4.17326 8.12354 4.07812 7.96733 4.07812 7.77466C4.07812 7.58198 4.1733 7.42578 4.29089 7.42578H11.371C11.4886 7.42578 11.5837 7.58198 11.5837 7.77466C11.5837 7.96733 11.4886 8.12354 11.371 8.12354Z" fill="#29292B"/>
<path d="M13.2052 10.7017H4.29089C4.17326 10.7017 4.07812 10.5455 4.07812 10.3528C4.07812 10.1601 4.1733 10.0039 4.29089 10.0039H13.2052C13.3228 10.0039 13.418 10.1601 13.418 10.3528C13.418 10.5455 13.3228 10.7017 13.2052 10.7017Z" fill="#29292B"/>
<path d="M9.51072 13.2837H4.29089C4.17326 13.2837 4.07812 13.1275 4.07812 12.9348C4.07812 12.7421 4.1733 12.5859 4.29089 12.5859H9.51072C9.62834 12.5859 9.72348 12.7421 9.72348 12.9348C9.72348 13.1275 9.62834 13.2837 9.51072 13.2837Z" fill="#29292B"/>
<path d="M13.2052 15.8657H4.29089C4.17326 15.8657 4.07812 15.7095 4.07812 15.5168C4.07812 15.3242 4.1733 15.168 4.29089 15.168H13.2052C13.3228 15.168 13.418 15.3242 13.418 15.5168C13.418 15.7095 13.3228 15.8657 13.2052 15.8657Z" fill="#29292B"/>
</svg>
