<svg width="24" height="24" viewBox="0 0 24 24" fill="none" xmlns="http://www.w3.org/2000/svg">
<rect x="3.14453" y="3.29297" width="17.4831" height="17.4831" rx="1.5" stroke="#29292B"/>
<path fill-rule="evenodd" clip-rule="evenodd" d="M4.99407 2.37998V3.06964C4.99407 3.26008 4.83969 3.41447 4.64925 3.41447H3.61476C3.42432 3.41447 3.26994 3.56885 3.26994 3.75929V4.79378C3.26994 4.98422 3.11555 5.1386 2.92511 5.1386H2.23545C2.04501 5.1386 1.89062 4.98422 1.89062 4.79378V2.72481C1.89062 2.34393 2.19939 2.03516 2.58028 2.03516H4.64925C4.83969 2.03516 4.99407 2.18954 4.99407 2.37998Z" fill="#29292B"/>
<path fill-rule="evenodd" clip-rule="evenodd" d="M2.23545 18.9336H2.92511C3.11555 18.9336 3.26994 19.088 3.26994 19.2784V20.3129C3.26994 20.5033 3.42432 20.6577 3.61476 20.6577H4.64925C4.83969 20.6577 4.99407 20.8121 4.99407 21.0026V21.6922C4.99407 21.8827 4.83969 22.037 4.64925 22.037H2.58028C2.19939 22.037 1.89062 21.7283 1.89062 21.3474V19.2784C1.89062 19.088 2.04501 18.9336 2.23545 18.9336Z" fill="#29292B"/>
<path fill-rule="evenodd" clip-rule="evenodd" d="M18.7852 21.6922V21.0026C18.7852 20.8121 18.9395 20.6577 19.13 20.6577H20.1645C20.3549 20.6577 20.5093 20.5033 20.5093 20.3129V19.2784C20.5093 19.088 20.6637 18.9336 20.8541 18.9336H21.5438C21.7342 18.9336 21.8886 19.088 21.8886 19.2784V21.3474C21.8886 21.7283 21.5798 22.037 21.1989 22.037H19.13C18.9395 22.037 18.7852 21.8827 18.7852 21.6922Z" fill="#29292B"/>
<path fill-rule="evenodd" clip-rule="evenodd" d="M21.5438 5.1386H20.8541C20.6637 5.1386 20.5093 4.98422 20.5093 4.79378V3.75929C20.5093 3.56885 20.3549 3.41447 20.1645 3.41447H19.13C18.9395 3.41447 18.7852 3.26008 18.7852 3.06964V2.37998C18.7852 2.18954 18.9395 2.03516 19.13 2.03516H21.1989C21.5798 2.03516 21.8886 2.34393 21.8886 2.72481V4.79378C21.8886 4.98422 21.7342 5.1386 21.5438 5.1386Z" fill="#29292B"/>
<path d="M7.0249 5.90186L5.43188 10.5234H4.46875L6.47559 5.19141H7.09082L7.0249 5.90186ZM8.35791 10.5234L6.76123 5.90186L6.69165 5.19141H7.31055L9.32471 10.5234H8.35791ZM8.28101 8.5459V9.27466H5.38062V8.5459H8.28101Z" fill="#6B20F7"/>
<path fill-rule="evenodd" clip-rule="evenodd" d="M18.7876 6.17403H10.8565C10.6661 6.17403 10.5117 6.01965 10.5117 5.8292C10.5117 5.63876 10.6661 5.48438 10.8565 5.48438H18.7876C18.978 5.48438 19.1324 5.63876 19.1324 5.8292C19.1324 6.01965 18.978 6.17403 18.7876 6.17403Z" fill="#B6B6BF"/>
<path fill-rule="evenodd" clip-rule="evenodd" d="M18.7876 9.27559H10.8565C10.6661 9.27559 10.5117 9.12121 10.5117 8.93077C10.5117 8.74032 10.6661 8.58594 10.8565 8.58594H18.7876C18.978 8.58594 19.1324 8.74032 19.1324 8.93077C19.1324 9.12121 18.978 9.27559 18.7876 9.27559Z" fill="#B6B6BF"/>
<path fill-rule="evenodd" clip-rule="evenodd" d="M18.7903 12.3811H4.99717C4.80673 12.3811 4.65234 12.2267 4.65234 12.0362C4.65234 11.8458 4.80673 11.6914 4.99717 11.6914H18.7903C18.9807 11.6914 19.1351 11.8458 19.1351 12.0362C19.1351 12.2267 18.9807 12.3811 18.7903 12.3811Z" fill="#B6B6BF"/>
<path fill-rule="evenodd" clip-rule="evenodd" d="M18.7825 15.4865H4.98936C4.79892 15.4865 4.64453 15.3321 4.64453 15.1417C4.64453 14.9513 4.79892 14.7969 4.98936 14.7969H18.7825C18.9729 14.7969 19.1273 14.9513 19.1273 15.1417C19.1273 15.3321 18.9729 15.4865 18.7825 15.4865Z" fill="#B6B6BF"/>
<path fill-rule="evenodd" clip-rule="evenodd" d="M18.7903 18.5881H4.99717C4.80673 18.5881 4.65234 18.4337 4.65234 18.2433C4.65234 18.0528 4.80673 17.8984 4.99717 17.8984H18.7903C18.9807 17.8984 19.1351 18.0528 19.1351 18.2433C19.1351 18.4337 18.9807 18.5881 18.7903 18.5881Z" fill="#B6B6BF"/>
</svg>
