<svg width="24" height="24" viewBox="0 0 24 24" fill="none" xmlns="http://www.w3.org/2000/svg">
<path d="M7.23556 3.23438H21.1457C21.4311 3.23438 21.6625 3.46576 21.6625 3.75118V14.0537C21.6625 14.3392 21.4311 14.5705 21.1457 14.5705H7.23556C6.95014 14.5705 6.71875 14.3392 6.71875 14.0537V3.75118C6.71875 3.46576 6.95014 3.23438 7.23556 3.23438Z" fill="#FF7456"/>
<path d="M17.2648 19.3804L16.4746 20.694C16.3212 20.9534 16.0983 21.1647 15.8312 21.3042C15.7365 21.3564 15.6357 21.3967 15.5311 21.4242C14.2174 21.7843 11.3234 21.8576 6.68557 17.2198C2.04778 12.5821 2.12108 9.68798 2.48117 8.37433C2.50813 8.27114 2.54728 8.17151 2.59788 8.07758C2.73846 7.80927 2.95086 7.58531 3.21135 7.43074L4.525 6.64054C4.82558 6.45987 5.21513 6.54806 5.40854 6.84059L6.54882 8.55101L7.50574 9.98805C7.69813 10.2726 7.63686 10.6575 7.3657 10.8683L6.89891 11.2317L6.18541 11.7851C6.07831 11.8691 6.00021 11.9846 5.96203 12.1152C5.90846 12.2828 5.92656 12.465 6.01205 12.6187C6.35881 13.2388 6.68553 13.9723 8.30929 15.5961C9.93306 17.2198 10.6666 17.5466 11.2867 17.8933C11.5701 18.0435 11.9203 17.9707 12.1202 17.72L12.6737 17.0065L13.0371 16.5397C13.2479 16.2685 13.6328 16.2073 13.9173 16.3996L15.401 17.3866L17.0647 18.4968C17.3573 18.6903 17.4455 19.0798 17.2648 19.3804Z" fill="#FFAF32"/>
<path d="M21.142 2.85625H21.142C21.6389 2.85683 22.0416 3.2595 22.0422 3.7564V3.75646V14.0696V14.0698C22.0402 14.5656 21.6377 14.9663 21.1419 14.9659M21.142 2.85625V14.9159M21.142 2.85625L7.17187 2.85625L7.17181 2.85625C6.6749 2.85683 6.27224 3.2595 6.27166 3.7564V3.75646V7.44462M21.142 2.85625L6.27166 7.44462M21.1419 14.9659L21.142 14.9159M21.1419 14.9659H21.142V14.9159M21.1419 14.9659H8.22751M21.142 14.9159H8.17974C8.19554 14.9324 8.21146 14.9491 8.22751 14.9659M8.22751 14.9659C8.33643 15.0796 8.45163 15.1977 8.5762 15.3223C10.0139 16.76 10.7241 17.1471 11.294 17.4577L11.2951 17.4583L11.2953 17.4584L11.4697 17.5544L11.4697 17.5544C11.5866 17.6189 11.7331 17.5879 11.8138 17.4816L11.8142 17.4812L12.7304 16.3032L12.7305 16.3031C13.0659 15.8752 13.6737 15.7766 14.1271 16.0765L14.1273 16.0766L17.2743 18.1744L11.2712 17.5022C10.6974 17.1894 9.98319 16.8 8.54084 15.3577C8.4033 15.2201 8.27717 15.0904 8.15834 14.9659H8.22751ZM14.3774 21.955C14.7996 21.9569 15.2201 21.9021 15.6277 21.7919L15.6281 21.7918C16.1208 21.6536 16.5409 21.3302 16.8006 20.8893C16.8006 20.8892 16.8006 20.8892 16.8007 20.8891L17.5896 19.5738L5.72443 6.62378C5.41719 6.16046 4.79941 6.02146 4.32335 6.30863L3.00956 7.09851C3.00949 7.09856 3.00941 7.0986 3.00934 7.09864C2.56787 7.35776 2.24403 7.77788 2.10584 8.27077L2.10577 8.27102C1.61959 10.0413 1.9885 13.0667 6.40969 17.4886L6.40971 17.4886C9.92528 21.0005 12.5548 21.9549 14.3774 21.955ZM14.3774 21.955L14.3776 21.905M14.3774 21.955C14.3775 21.955 14.3776 21.955 14.3776 21.955V21.905M14.3776 21.905C14.7953 21.9069 15.2114 21.8526 15.6146 21.7436L14.3776 21.905ZM6.27166 7.44462L5.7245 6.62389L6.27166 7.44462ZM16.1422 20.4948L16.1425 20.4943L16.9317 19.1786C17.0062 19.0541 16.9699 18.893 16.8492 18.8125L13.7022 16.7148C13.7022 16.7147 13.7022 16.7147 13.7022 16.7147C13.5832 16.6362 13.4239 16.662 13.3358 16.7741L16.1422 20.4948ZM16.1422 20.4948C15.984 20.7662 15.7269 20.9658 15.4248 21.052C13.874 21.4784 11.1335 21.1258 6.95279 16.9448C2.77211 12.7638 2.42087 10.0236 2.84624 8.4741C2.93234 8.17204 3.13185 7.91498 3.40309 7.75664L3.40309 7.75664L3.40361 7.75633L4.7192 6.96685C4.7192 6.96685 4.71921 6.96685 4.71921 6.96684C4.84382 6.89244 5.00483 6.92873 5.08541 7.04938L7.18412 10.1963C7.18413 10.1963 7.18415 10.1963 7.18416 10.1964C7.26281 10.3154 7.23693 10.4748 7.12465 10.5628C7.12464 10.5628 7.12463 10.5628 7.12463 10.5628L5.94672 11.479C5.94667 11.4791 5.94663 11.4791 5.94658 11.4791C5.54011 11.7911 5.42402 12.354 5.67403 12.8013C5.67406 12.8013 5.67409 12.8014 5.67412 12.8014L5.7672 12.9703C5.76722 12.9704 5.76724 12.9704 5.76725 12.9704C6.10262 13.5855 6.51985 14.3504 8.03432 15.8645C9.54885 17.3786 10.3134 17.7962 10.9282 18.1316L11.0971 18.2244C11.0971 18.2244 11.0972 18.2244 11.0972 18.2245C11.5446 18.4745 12.1076 18.3585 12.4196 17.952C12.4197 17.9519 12.4197 17.9519 12.4198 17.9518L13.3357 16.7743L16.1422 20.4948ZM6.3006 12.453L6.39664 12.628L6.3006 12.453ZM6.3006 12.453C6.22402 12.3146 6.26066 12.1411 6.38663 12.0455L6.3006 12.453ZM21.2722 3.62619C21.3067 3.6607 21.3259 3.70766 21.3253 3.75646M21.2722 3.62619C21.2377 3.59169 21.1908 3.57255 21.142 3.5731L21.3253 3.75646M21.2722 3.62619L21.2369 3.66155C21.2619 3.68653 21.2757 3.72055 21.2753 3.7559V3.75646L21.2754 14.0691C21.2754 14.0692 21.2754 14.0693 21.2754 14.0693C21.2745 14.142 21.2151 14.2003 21.1424 14.1997H21.142H7.53199C7.10786 13.7121 6.74172 13.1768 6.44089 12.6047L6.4409 12.6047L6.44047 12.6039L6.34443 12.4289L6.34434 12.4287C6.2798 12.3122 6.31068 12.1659 6.41686 12.0853L6.41733 12.085L7.59563 11.1684L7.59577 11.1683C8.02381 10.833 8.12243 10.2251 7.82235 9.7717L7.82226 9.77157L7.03846 8.59519L7.03847 3.75646L7.03846 3.7559C7.03806 3.72055 7.05193 3.68653 7.07692 3.66155C7.1019 3.63656 7.13592 3.6227 7.17127 3.6231H7.17183L21.142 3.6231L21.1425 3.62309C21.1779 3.6227 21.2119 3.63656 21.2369 3.66155L21.2722 3.62619ZM21.3253 3.75646L21.3254 14.0697L21.3253 3.75646ZM17.5896 19.5738C17.8756 19.0981 17.7367 18.4816 17.2744 18.1745L17.5896 19.5738Z" fill="#29292B" stroke="#29292B" stroke-width="0.1"/>
<path d="M19.9615 4.41078L19.9616 4.41076C20.1302 4.28302 20.3703 4.31595 20.4984 4.48435C20.56 4.56538 20.5868 4.66755 20.573 4.76841C20.5592 4.86924 20.5059 4.96045 20.4247 5.02192M19.9615 4.41078L20.4247 5.02192M19.9615 4.41078L14.39 8.63621C14.3898 8.63631 14.3897 8.6364 14.3896 8.6365C14.2496 8.73794 14.0603 8.73795 13.9203 8.6365L8.35044 4.41078L8.35044 4.41078M19.9615 4.41078L8.35044 4.41078M20.4247 5.02192L14.852 9.24761L14.8515 9.24799L14.8515 9.24799C14.4375 9.55384 13.8725 9.55384 13.4585 9.24799L13.458 9.24761L13.458 9.24761L7.88694 5.02192C7.88694 5.02191 7.88694 5.02191 7.88694 5.02191C7.71818 4.89395 7.68512 4.65336 7.81312 4.4846L20.4247 5.02192ZM8.35044 4.41078C8.18168 4.28277 7.94109 4.31584 7.81312 4.48459L8.35044 4.41078Z" fill="#29292B" stroke="#29292B" stroke-width="0.1"/>
</svg>
