<svg width="16" height="22" viewBox="0 0 16 22" fill="none" xmlns="http://www.w3.org/2000/svg">
<path d="M0.624512 8.27734C0.624512 10.4575 1.58936 12.4336 3.11084 13.7881L3.12012 20.7925C3.12012 21.3491 3.40771 21.5811 3.78809 21.5811C4.11279 21.5811 4.354 21.3955 4.60449 21.145L7.61963 18.1392C7.78662 17.9907 7.89795 17.9351 8.00928 17.9351C8.12061 17.9351 8.24121 17.9907 8.39893 18.1392L11.4141 21.145C11.6738 21.4048 11.9243 21.5811 12.2305 21.5811C12.6294 21.5811 12.9077 21.3491 12.9077 20.7925V13.7603C14.4106 12.415 15.3662 10.4482 15.3755 8.27734C15.3848 4.19531 12.0449 0.864746 8 0.864746C3.9458 0.864746 0.624512 4.19531 0.624512 8.27734ZM2.13672 8.27734C2.13672 4.98389 4.70654 2.33984 8.00928 2.33984C11.3027 2.33984 13.8726 4.98389 13.8818 8.27734C13.8911 11.5615 11.3027 14.2056 8.00928 14.1963C4.70654 14.187 2.13672 11.5615 2.13672 8.27734Z" fill="#F2F2F7"/>
<path d="M3.11084 13.7881L4.11084 13.7868L4.11025 13.3389L3.77577 13.0412L3.11084 13.7881ZM3.12012 20.7925H4.12012L4.12012 20.7912L3.12012 20.7925ZM4.60449 21.145L3.89848 20.4368L3.89739 20.4379L4.60449 21.145ZM7.61963 18.1392L6.95527 17.3918L6.93388 17.4108L6.91361 17.431L7.61963 18.1392ZM8.39893 18.1392L9.10494 17.431L9.09476 17.4208L9.08429 17.411L8.39893 18.1392ZM11.4141 21.145L12.1212 20.4379L12.1201 20.4368L11.4141 21.145ZM12.9077 13.7603L12.2408 13.0151L11.9077 13.3133V13.7603H12.9077ZM15.3755 8.27734L16.3755 8.28162L16.3755 8.27962L15.3755 8.27734ZM13.8818 8.27734L12.8818 8.28016V8.28017L13.8818 8.27734ZM8.00928 14.1963L8.01209 13.1963H8.01209L8.00928 14.1963ZM-0.375488 8.27734C-0.375488 10.7577 0.72258 13.0008 2.44591 14.535L3.77577 13.0412C2.45613 11.8664 1.62451 10.1574 1.62451 8.27734H-0.375488ZM2.11084 13.7894L2.12012 20.7938L4.12012 20.7912L4.11084 13.7868L2.11084 13.7894ZM2.12012 20.7925C2.12012 21.2347 2.23556 21.7095 2.58151 22.079C2.93451 22.456 3.3939 22.5811 3.78809 22.5811V20.5811C3.79334 20.5811 3.82675 20.5818 3.87714 20.6008C3.9309 20.6212 3.99047 20.6576 4.04141 20.712C4.14847 20.8263 4.12012 20.9069 4.12012 20.7925H2.12012ZM3.78809 22.5811C4.54402 22.5811 5.03824 22.1255 5.3116 21.8521L3.89739 20.4379C3.84675 20.4885 3.80754 20.5248 3.77534 20.5518C3.74347 20.5784 3.72489 20.5905 3.71743 20.5948C3.71108 20.5986 3.71737 20.5941 3.73431 20.5891C3.75243 20.5837 3.77176 20.5811 3.78809 20.5811V22.5811ZM5.31051 21.8532L8.32565 18.8474L6.91361 17.431L3.89848 20.4368L5.31051 21.8532ZM8.28399 18.8866C8.33829 18.8383 8.33734 18.8476 8.29564 18.8692C8.27104 18.882 8.23157 18.8995 8.17892 18.9133C8.12481 18.9275 8.06727 18.9351 8.00928 18.9351V16.9351C7.51411 16.9351 7.16441 17.2058 6.95527 17.3918L8.28399 18.8866ZM8.00928 18.9351C7.88691 18.9351 7.79046 18.9018 7.73302 18.8726C7.6853 18.8483 7.67766 18.8336 7.71356 18.8674L9.08429 17.411C8.8499 17.1904 8.49329 16.9351 8.00928 16.9351V18.9351ZM7.69291 18.8474L10.708 21.8532L12.1201 20.4368L9.10494 17.431L7.69291 18.8474ZM10.707 21.8521C11.0034 22.1486 11.5031 22.5811 12.2305 22.5811V20.5811C12.2519 20.5811 12.2731 20.5844 12.2902 20.5894C12.3062 20.5941 12.3108 20.5978 12.3026 20.5931C12.2936 20.588 12.2738 20.5753 12.2417 20.549C12.2095 20.5226 12.1701 20.4868 12.1212 20.4379L10.707 21.8521ZM12.2305 22.5811C12.6225 22.5811 13.0895 22.4626 13.4486 22.079C13.7989 21.7049 13.9077 21.2261 13.9077 20.7925H11.9077C11.9077 20.9155 11.8773 20.831 11.9887 20.712C12.0424 20.6547 12.1042 20.618 12.1573 20.5984C12.2062 20.5802 12.235 20.5811 12.2305 20.5811V22.5811ZM13.9077 20.7925V13.7603H11.9077V20.7925H13.9077ZM13.5746 14.5054C15.2794 12.9796 16.3649 10.7474 16.3755 8.28162L14.3755 8.27307C14.3675 10.1491 13.5419 11.8505 12.2408 13.0151L13.5746 14.5054ZM16.3755 8.27962C16.386 3.64472 12.5984 -0.135254 8 -0.135254V1.86475C11.4914 1.86475 14.3835 4.74591 14.3755 8.27507L16.3755 8.27962ZM8 -0.135254C3.38944 -0.135254 -0.375488 3.64711 -0.375488 8.27734H1.62451C1.62451 4.74351 4.50216 1.86475 8 1.86475V-0.135254ZM3.13672 8.27734C3.13672 5.5207 5.27418 3.33984 8.00928 3.33984V1.33984C4.13891 1.33984 1.13672 4.44708 1.13672 8.27734H3.13672ZM8.00928 3.33984C10.7336 3.33984 12.8741 5.51976 12.8818 8.28016L14.8818 8.27453C14.8711 4.44802 11.8719 1.33984 8.00928 1.33984V3.33984ZM12.8818 8.28017C12.8896 11.0212 10.7398 13.204 8.01209 13.1963L8.00646 15.1963C11.8657 15.2072 14.8926 12.1018 14.8818 8.27452L12.8818 8.28017ZM8.01209 13.1963C5.26919 13.1886 3.13672 11.019 3.13672 8.27734H1.13672C1.13672 12.104 4.1439 15.1854 8.00647 15.1963L8.01209 13.1963Z" fill="#DDDDE8"/>
</svg>
