<svg width="24" height="24" viewBox="0 0 24 24" fill="none" xmlns="http://www.w3.org/2000/svg">
<g clip-path="url(#clip0_3831_26396)">
<path d="M9.0315 17.0372C8.02312 16.619 6.576 16.814 5.81625 16.0539C5.32425 15.5619 5.23238 14.7819 5.11538 14.0195L1.125 18.7753L5.0145 19.1019L6.01125 22.8755L10.2502 17.8235C9.84412 17.5217 9.44625 17.2093 9.0315 17.0372Z" fill="#AEABEA" stroke="#29292B" stroke-width="0.6"/>
<path d="M18.8849 14.0199C18.7679 14.7823 18.676 15.5623 18.184 16.0543C17.4243 16.814 15.9771 16.619 14.9688 17.0372C14.5536 17.2093 14.1561 17.5217 13.75 17.8235L17.989 22.8755L18.9857 19.1019L22.8752 18.7753L18.8849 14.0195V14.0199Z" fill="#AEABEA" stroke="#29292B" stroke-width="0.6"/>
<path d="M20.7443 9.87038C20.7443 10.989 19.5694 11.8661 19.1659 12.8389C18.7478 13.8473 18.9428 15.2944 18.1827 16.0541C17.4225 16.8139 15.9758 16.6189 14.9674 17.037C13.9947 17.4405 13.1175 18.6154 11.9989 18.6154C10.8803 18.6154 10.0032 17.4405 9.03041 17.037C8.02203 16.6189 6.57491 16.8139 5.81516 16.0538C5.05541 15.2936 5.25041 13.8469 4.83228 12.8385C4.42878 11.8658 3.25391 10.9886 3.25391 9.87C3.25391 8.75138 4.42878 7.87425 4.83228 6.9015C5.25041 5.89313 5.05541 4.446 5.81553 3.68625C6.57566 2.9265 8.02241 3.1215 9.03078 2.70338C10.0035 2.29988 10.8807 1.125 11.9993 1.125C13.1179 1.125 13.995 2.29988 14.9678 2.70338C15.9762 3.1215 17.4233 2.9265 18.183 3.68663C18.9428 4.44675 18.7478 5.8935 19.1659 6.90188C19.5694 7.87463 20.7443 8.75175 20.7443 9.87038Z" fill="#FFAF32" stroke="#29292B" stroke-width="0.7"/>
<path d="M12 15.4961C15.1066 15.4961 17.625 12.9777 17.625 9.87109C17.625 6.76449 15.1066 4.24609 12 4.24609C8.8934 4.24609 6.375 6.76449 6.375 9.87109C6.375 12.9777 8.8934 15.4961 12 15.4961Z" fill="#FF7456" stroke="#29292B" stroke-width="0.7"/>
<path d="M12.8779 6.66016V13.0806H11.8188V7.91699L10.25 8.44873V7.57422L12.7505 6.66016H12.8779Z" fill="white"/>
</g>
<defs>
<clipPath id="clip0_3831_26396">
<rect width="24" height="24" fill="white"/>
</clipPath>
</defs>
</svg>
