<svg width="24" height="24" viewBox="0 0 24 24" fill="none" xmlns="http://www.w3.org/2000/svg">
<path d="M12.9131 14.5251L12.9132 14.5252C12.9238 14.5152 12.9322 14.503 12.938 14.4896L13.3516 14.6669L12.938 14.4896C12.9437 14.4762 12.9467 14.4617 12.9467 14.4471C12.9467 14.4325 12.9437 14.418 12.938 14.4046C12.9322 14.3912 12.9238 14.3791 12.9132 14.369L12.9069 14.363L12.9009 14.3568C12.8896 14.3451 12.876 14.3359 12.8611 14.3295C12.8461 14.3232 12.83 14.32 12.8138 14.32C12.7975 14.32 12.7815 14.3232 12.7665 14.3295C12.7515 14.3359 12.738 14.3451 12.7267 14.3568L12.7222 14.3613L12.7222 14.3613L11.9149 15.1686C11.9147 15.1688 11.9146 15.1689 11.9144 15.1691C11.7115 15.3727 11.4704 15.5344 11.2049 15.6447C10.9392 15.755 10.6544 15.8119 10.3667 15.8119C10.079 15.8119 9.7941 15.755 9.52841 15.6447C9.26276 15.5343 9.02152 15.3725 8.81854 15.1687L12.9131 14.5251ZM12.9131 14.5251L12.9054 14.5329M12.9131 14.5251L12.9054 14.5329M12.9054 14.5329L12.0858 15.3525L12.0858 15.3525M12.9054 14.5329L12.0858 15.3525M12.0858 15.3525L12.0836 15.3547M12.0858 15.3525L12.0836 15.3547M12.0836 15.3547C11.8605 15.5809 11.5945 15.7601 11.3011 15.8818C11.0077 16.0035 10.6928 16.0652 10.3752 16.0633L10.3717 16.0633M12.0836 15.3547L10.3717 16.0633M10.3717 16.0633C9.8907 16.064 9.42024 15.9221 9.01991 15.6553M10.3717 16.0633L9.01991 15.6553M9.46718 11.0947L9.46709 11.0946L8.64773 11.914L9.46718 11.0947ZM9.46718 11.0947L9.47477 11.0868M9.46718 11.0947L9.47477 11.0868M9.47477 11.0868C9.48485 11.0762 9.49697 11.0678 9.5104 11.062C9.52382 11.0562 9.53828 11.0533 9.55289 11.0533C9.5675 11.0533 9.58196 11.0562 9.59539 11.062C9.60882 11.0678 9.62093 11.0762 9.63101 11.0868L9.637 11.0931M9.47477 11.0868L9.637 11.0931M9.637 11.0931L9.64323 11.0991M9.637 11.0931L9.64323 11.0991M9.64323 11.0991C9.65487 11.1104 9.66413 11.124 9.67045 11.1389C9.67677 11.1539 9.68003 11.17 9.68003 11.1862C9.68003 11.2025 9.67677 11.2185 9.67045 11.2335C9.66413 11.2485 9.65487 11.262 9.64322 11.2733L9.64321 11.2733M9.64323 11.0991L9.64321 11.2733M9.64321 11.2733L9.64096 11.2755M9.64321 11.2733L9.64096 11.2755M9.64096 11.2755L8.82141 12.0836L8.82136 12.0835M9.64096 11.2755L8.82136 12.0835M8.82136 12.0835L8.8158 12.0892M8.82136 12.0835L8.8158 12.0892M8.8158 12.0892C8.41405 12.4995 8.18969 13.0513 8.19099 13.6254M8.8158 12.0892L8.19099 13.6254M9.01991 15.6553C8.61958 15.3886 8.30738 15.0091 8.1228 14.5649M9.01991 15.6553L8.1228 14.5649M8.1228 14.5649C7.93823 14.1207 7.88959 13.6317 7.98303 13.1598M8.1228 14.5649L7.98303 13.1598M7.98303 13.1598C8.07645 12.688 8.30771 12.2545 8.64754 11.9142L7.98303 13.1598ZM8.19099 13.6254C8.18764 13.9109 8.24118 14.1941 8.34849 14.4587C8.45624 14.7243 8.61603 14.9657 8.81846 15.1686L8.19099 13.6254ZM21.6844 12L21.6844 11.9994C21.681 9.43215 20.6596 6.97101 18.8443 5.15569C17.029 3.34036 14.5678 2.31902 12.0006 2.31563L12 2.31563L11.55 2.31503V2.32608C9.79248 2.40782 8.08727 2.96711 6.61965 3.94774C5.02707 5.01187 3.78579 6.52436 3.05281 8.29395C2.31982 10.0635 2.12804 12.0107 2.50171 13.8893C2.87539 15.7679 3.79773 17.4935 5.15212 18.8479C6.5065 20.2023 8.23209 21.1246 10.1107 21.4983C11.9893 21.872 13.9365 21.6802 15.706 20.9472C17.4756 20.2142 18.9881 18.9729 20.0523 17.3803C21.1164 15.7878 21.6844 13.9154 21.6844 12ZM13.3126 10.859L13.3126 10.859L13.3094 10.8622L10.8623 13.3094L10.8622 13.3093L10.8546 13.3172C10.8445 13.3278 10.8324 13.3362 10.8189 13.342C10.8055 13.3477 10.7911 13.3507 10.7764 13.3507C10.7618 13.3507 10.7474 13.3477 10.7339 13.342C10.7205 13.3362 10.7084 13.3278 10.6983 13.3172L10.6907 13.3093L10.6828 13.3017C10.6722 13.2916 10.6638 13.2795 10.658 13.266C10.6522 13.2526 10.6493 13.2382 10.6493 13.2235C10.6493 13.2089 10.6522 13.1945 10.658 13.1811C10.6638 13.1676 10.6722 13.1555 10.6828 13.1454L10.6829 13.1455L10.6906 13.1377L13.1377 10.6906L13.1378 10.6907L13.1409 10.6874C13.1522 10.6759 13.1656 10.6668 13.1803 10.6606C13.1951 10.6543 13.211 10.6511 13.227 10.651C13.2431 10.6509 13.259 10.654 13.2738 10.6601L13.445 10.2439L13.2738 10.6601C13.2886 10.6662 13.3021 10.6752 13.3135 10.6865L13.6317 10.3683L13.3135 10.6865C13.3248 10.6979 13.3338 10.7114 13.3399 10.7262C13.346 10.741 13.3491 10.7569 13.349 10.773C13.3489 10.789 13.3457 10.8049 13.3394 10.8197C13.3332 10.8344 13.324 10.8478 13.3126 10.859ZM14.5329 12.9054L14.527 12.9113L14.5212 12.9175C14.5125 12.9269 14.502 12.9343 14.4902 12.9393L14.6675 13.353L14.4902 12.9393C14.4784 12.9444 14.4658 12.9469 14.453 12.9467V12.9467L14.4479 12.9467C14.433 12.9467 14.4183 12.9436 14.4047 12.9378L14.2274 13.3514L14.4047 12.9378C14.391 12.9319 14.3787 12.9234 14.3685 12.9127L14.3627 12.9067L14.3568 12.9009C14.3451 12.8896 14.3359 12.876 14.3295 12.8611L13.915 13.0362L14.3295 12.8611C14.3232 12.8461 14.32 12.83 14.32 12.8138C14.32 12.7975 14.3232 12.7815 14.3295 12.7665L13.915 12.5913L14.3295 12.7665C14.3359 12.7515 14.3451 12.738 14.3568 12.7267L14.3568 12.7267L14.359 12.7244L15.1786 11.9164L15.1786 11.9165L15.1842 11.9108C15.5859 11.5005 15.8103 10.9488 15.809 10.3746C15.8124 10.0892 15.7588 9.80589 15.6515 9.54133C15.5438 9.2757 15.384 9.03432 15.1815 8.83137C14.9785 8.6275 14.7373 8.46572 14.4716 8.35534C14.2059 8.24495 13.921 8.18813 13.6333 8.18813C13.3456 8.18813 13.0608 8.24495 12.7951 8.35534C12.5295 8.46566 12.2884 8.62731 12.0855 8.83102C12.0854 8.83114 12.0852 8.83126 12.0851 8.83137L11.2778 9.63869L11.2778 9.63866L11.2733 9.64322C11.262 9.65487 11.2485 9.66413 11.2335 9.67045C11.2185 9.67677 11.2025 9.68003 11.1862 9.68003C11.17 9.68003 11.1539 9.67677 11.1389 9.67045C11.124 9.66413 11.1104 9.65487 11.0991 9.64322L11.0931 9.63699L11.0868 9.63101C11.0762 9.62093 11.0678 9.60881 11.062 9.59538C11.0563 9.58195 11.0533 9.5675 11.0533 9.55289C11.0533 9.53828 11.0563 9.52382 11.062 9.51039C11.0678 9.49696 11.0762 9.48484 11.0868 9.47477L11.0869 9.47487L11.0946 9.46708L11.9132 8.64856C11.9133 8.6484 11.9135 8.64823 11.9137 8.64807C12.3701 8.19487 12.9875 7.94098 13.6307 7.94202C14.2741 7.94306 14.8909 8.19913 15.3459 8.65411C15.8009 9.10909 16.0569 9.72588 16.058 10.3693C16.059 11.0125 15.8052 11.6299 15.352 12.0863C15.3518 12.0865 15.3516 12.0866 15.3514 12.0868L14.5329 12.9054Z" fill="#FFAF32" stroke="#29292B" stroke-width="0.9"/>
</svg>
