<svg width="24" height="24" viewBox="0 0 24 24" fill="none" xmlns="http://www.w3.org/2000/svg">
<path d="M19.9089 3.75V21.25C19.9089 21.9417 19.3505 22.5 18.6589 22.5H5.24219C4.55469 22.5 3.99219 21.9417 3.99219 21.25V3.75C3.99219 3.0625 4.55469 2.5 5.24219 2.5H18.6589C19.3505 2.5 19.9089 3.0625 19.9089 3.75Z" fill="#DDDDE8" stroke="#29292B" stroke-width="0.8"/>
<path d="M5.23828 4.82813C5.23828 4.27584 5.686 3.82812 6.23828 3.82812H17.6549C18.2072 3.82812 18.6549 4.27584 18.6549 4.82812V7.54479C18.6549 8.09707 18.2072 8.54479 17.6549 8.54479H6.23828C5.686 8.54479 5.23828 8.09708 5.23828 7.54479V4.82813Z" fill="#FFAF32" stroke="#29292B" stroke-width="0.8"/>
<path d="M11.2966 10.6979V14.4563C11.2966 14.6854 11.1133 14.8729 10.8799 14.8729H5.65495C5.42578 14.8729 5.23828 14.6854 5.23828 14.4563V10.6979C5.23828 10.4688 5.42578 10.2812 5.65495 10.2812H10.8799C11.1133 10.2812 11.2966 10.4688 11.2966 10.6979Z" fill="#FF7456" stroke="#29292B" stroke-width="0.8"/>
<path d="M18.6526 11.2198C18.6526 11.474 18.4678 11.674 18.2415 11.674H13.1767C12.9504 11.674 12.7656 11.474 12.7656 11.2198C12.7656 10.9698 12.9504 10.7656 13.1767 10.7656H18.2415C18.4678 10.7656 18.6526 10.9698 18.6526 11.2198Z" fill="#29292B"/>
<path d="M18.6526 13.9346C18.6526 14.1888 18.4678 14.3888 18.2415 14.3888H13.1767C12.9504 14.3888 12.7656 14.1888 12.7656 13.9346C12.7656 13.6846 12.9504 13.4805 13.1767 13.4805H18.2415C18.4678 13.4805 18.6526 13.6846 18.6526 13.9346Z" fill="#29292B"/>
<path d="M5.23828 17.1417C5.23828 17.3958 5.44245 17.5958 5.69245 17.5958H18.2008C18.4508 17.5958 18.6549 17.3958 18.6549 17.1417C18.6549 16.8917 18.4508 16.6875 18.2008 16.6875H5.69245C5.44245 16.6875 5.23828 16.8917 5.23828 17.1417Z" fill="#29292B"/>
<path d="M5.23828 19.8174C5.23828 20.0716 5.44245 20.2716 5.69245 20.2716H18.2008C18.4508 20.2716 18.6549 20.0716 18.6549 19.8174C18.6549 19.5674 18.4508 19.3633 18.2008 19.3633H5.69245C5.44245 19.3633 5.23828 19.5674 5.23828 19.8174Z" fill="#29292B"/>
<path d="M9.69365 4.89453V7.43827H9.25513L8.1143 5.61607V7.43827H7.67578V4.89453H8.1143L9.25863 6.72022V4.89453H9.69365Z" fill="#29292B"/>
<path d="M11.0074 7.47321C10.8677 7.47321 10.7413 7.4505 10.6283 7.40507C10.5165 7.35848 10.421 7.29384 10.3418 7.21115C10.2638 7.12845 10.2038 7.0312 10.1619 6.91939C10.1199 6.80757 10.099 6.68703 10.099 6.55774V6.48786C10.099 6.33994 10.1205 6.206 10.1636 6.08603C10.2067 5.96607 10.2667 5.86357 10.3436 5.77855C10.4204 5.69236 10.5113 5.62655 10.6161 5.58113C10.7209 5.53571 10.8345 5.51299 10.9568 5.51299C11.0919 5.51299 11.2101 5.53571 11.3114 5.58113C11.4128 5.62655 11.4966 5.69061 11.563 5.77331C11.6306 5.85484 11.6806 5.95209 11.7133 6.06507C11.747 6.17805 11.7639 6.30267 11.7639 6.43894V6.61889H10.3034V6.31665H11.3481V6.28345C11.3458 6.20775 11.3307 6.1367 11.3027 6.07031C11.2759 6.00392 11.2346 5.95034 11.1787 5.90958C11.1228 5.86881 11.0482 5.84843 10.955 5.84843C10.8851 5.84843 10.8228 5.86357 10.7681 5.89386C10.7145 5.92297 10.6697 5.96549 10.6336 6.02139C10.5975 6.0773 10.5695 6.14485 10.5497 6.22405C10.5311 6.30209 10.5218 6.39002 10.5218 6.48786V6.55774C10.5218 6.64044 10.5328 6.71731 10.555 6.78836C10.5782 6.85824 10.612 6.91939 10.6563 6.9718C10.7005 7.02421 10.7541 7.06556 10.817 7.09584C10.8799 7.12496 10.9515 7.13952 11.0319 7.13952C11.1332 7.13952 11.2235 7.11913 11.3027 7.07837C11.3819 7.0376 11.4506 6.97995 11.5089 6.90541L11.7307 7.1203C11.69 7.1797 11.637 7.23677 11.5717 7.29151C11.5065 7.34509 11.4267 7.38877 11.3324 7.42254C11.2392 7.45632 11.1309 7.47321 11.0074 7.47321Z" fill="#29292B"/>
<path d="M12.606 7.01897L13.0428 5.54794H13.3118L13.2385 5.9882L12.7982 7.43827H12.5571L12.606 7.01897ZM12.3492 5.54794L12.6899 7.02596L12.7178 7.43827H12.4488L11.9369 5.54794H12.3492ZM13.7206 7.00849L14.0508 5.54794H14.4614L13.9513 7.43827H13.6822L13.7206 7.00849ZM13.3573 5.54794L13.7888 7.0015L13.8429 7.43827H13.6018L13.1563 5.98645L13.083 5.54794H13.3573Z" fill="#29292B"/>
<path d="M15.8084 6.92637C15.8084 6.88444 15.7979 6.84659 15.7769 6.81281C15.756 6.77787 15.7158 6.74643 15.6564 6.71847C15.5982 6.69052 15.512 6.6649 15.3978 6.6416C15.2977 6.61947 15.2057 6.59327 15.1218 6.56298C15.0391 6.53154 14.9681 6.49368 14.9087 6.44942C14.8493 6.40516 14.8032 6.35275 14.7706 6.29219C14.738 6.23162 14.7217 6.16174 14.7217 6.08254C14.7217 6.00567 14.7386 5.93287 14.7724 5.86416C14.8062 5.79544 14.8545 5.73487 14.9174 5.68246C14.9803 5.63005 15.0566 5.5887 15.1463 5.55842C15.2371 5.52814 15.3384 5.51299 15.4502 5.51299C15.6086 5.51299 15.7443 5.53978 15.8573 5.59336C15.9715 5.64577 16.0588 5.7174 16.1194 5.80825C16.1799 5.89793 16.2102 5.99926 16.2102 6.11224H15.7892C15.7892 6.06216 15.7764 6.01557 15.7507 5.97247C15.7263 5.92821 15.689 5.89269 15.6389 5.8659C15.5888 5.83795 15.526 5.82397 15.4502 5.82397C15.378 5.82397 15.3181 5.83562 15.2703 5.85891C15.2237 5.88104 15.1888 5.91016 15.1655 5.94627C15.1433 5.98237 15.1323 6.02197 15.1323 6.06507C15.1323 6.09652 15.1381 6.12505 15.1497 6.15067C15.1626 6.17513 15.1835 6.19785 15.2126 6.21881C15.2418 6.23861 15.2814 6.25725 15.3314 6.27472C15.3827 6.29219 15.4468 6.30908 15.5236 6.32538C15.668 6.35566 15.7921 6.39468 15.8957 6.44244C16.0006 6.48902 16.0809 6.54959 16.1368 6.62413C16.1928 6.69751 16.2207 6.79069 16.2207 6.90366C16.2207 6.98752 16.2027 7.06439 16.1665 7.13428C16.1316 7.20299 16.0804 7.26298 16.0128 7.31422C15.9452 7.36431 15.8643 7.40332 15.77 7.43128C15.6768 7.45923 15.572 7.47321 15.4555 7.47321C15.2843 7.47321 15.1393 7.44292 15.0205 7.38236C14.9017 7.32063 14.8114 7.24201 14.7497 7.14651C14.6891 7.04983 14.6588 6.94967 14.6588 6.84601H15.0659C15.0705 6.92404 15.0921 6.98636 15.1305 7.03295C15.1701 7.07837 15.219 7.11156 15.2773 7.13253C15.3367 7.15233 15.3978 7.16223 15.4607 7.16223C15.5364 7.16223 15.5999 7.15233 15.6512 7.13253C15.7024 7.11156 15.7414 7.08361 15.7682 7.04867C15.795 7.01256 15.8084 6.9718 15.8084 6.92637Z" fill="#29292B"/>
</svg>
