<svg width="24" height="24" viewBox="0 0 24 24" fill="none" xmlns="http://www.w3.org/2000/svg">
<path d="M20.1471 10.7895H8.75554C8.36417 10.7895 8.04688 10.4723 8.04688 10.0809V8.50944C8.04688 8.11807 8.36413 7.80078 8.75554 7.80078H20.1471C20.5385 7.80078 20.8558 8.11804 20.8558 8.50944V10.0809C20.8557 10.4722 20.5385 10.7895 20.1471 10.7895Z" fill="#28B886" stroke="#29292B"/>
<path d="M4.84846 7.58594C4.73054 7.58594 4.61545 7.59789 4.50427 7.62063C4.44865 7.63202 4.3941 7.64609 4.34061 7.6627C4.23366 7.69599 4.13121 7.73946 4.0344 7.79204C3.8892 7.87092 3.75671 7.97023 3.64083 8.08615C3.52496 8.20206 3.42561 8.33451 3.34673 8.47971C3.32044 8.5281 3.29642 8.57792 3.27481 8.62899C3.23161 8.73114 3.19805 8.83839 3.17532 8.94958C3.15258 9.06077 3.14062 9.17585 3.14062 9.29377C3.14062 9.41169 3.15258 9.52677 3.17532 9.63796C3.19503 9.73424 3.22427 9.82686 3.25945 9.91648C3.28522 9.98208 3.3134 10.0465 3.34677 10.1078C3.40174 10.209 3.46715 10.3036 3.54066 10.3912C3.6781 10.5548 3.84524 10.6927 4.0344 10.7955C4.09576 10.8288 4.16011 10.857 4.22575 10.8828C4.31537 10.918 4.40798 10.9472 4.50427 10.9669C4.61545 10.9897 4.73054 11.0016 4.84846 11.0016C5.79168 11.0016 6.55629 10.237 6.55629 9.29381C6.55629 8.35055 5.79168 7.58594 4.84846 7.58594Z" fill="#28B886" stroke="#29292B"/>
<path d="M4.84846 16.4157C5.79167 16.4157 6.55629 15.651 6.55629 14.7078C6.55629 13.7646 5.79167 13 4.84846 13C3.90525 13 3.14062 13.7646 3.14062 14.7078C3.14062 15.651 3.90525 16.4157 4.84846 16.4157Z" fill="#FF7456" stroke="#29292B"/>
<path d="M20.1471 16.2036H8.75554C8.36417 16.2036 8.04688 15.8863 8.04688 15.4949V13.9235C8.04688 13.5321 8.36413 13.2148 8.75554 13.2148H20.1471C20.5385 13.2148 20.8558 13.5321 20.8558 13.9235V15.4949C20.8557 15.8863 20.5385 16.2036 20.1471 16.2036Z" fill="#FF7456" stroke="#29292B"/>
<path d="M4.84846 21.8297C5.79167 21.8297 6.55629 21.0651 6.55629 20.1219C6.55629 19.1787 5.79167 18.4141 4.84846 18.4141C3.90525 18.4141 3.14062 19.1787 3.14062 20.1219C3.14062 21.0651 3.90525 21.8297 4.84846 21.8297Z" fill="#98C1D5" stroke="#29292B"/>
<path d="M20.1471 21.6176H8.75554C8.36417 21.6176 8.04688 21.3004 8.04688 20.909V19.3376C8.04688 18.9462 8.36413 18.6289 8.75554 18.6289H20.1471C20.5385 18.6289 20.8558 18.9462 20.8558 19.3376V20.909C20.8557 21.3003 20.5385 21.6176 20.1471 21.6176Z" fill="#98C1D5" stroke="#29292B"/>
<path d="M4.84846 5.58754C5.79167 5.58754 6.55629 4.82292 6.55629 3.87971C6.55629 2.9365 5.79167 2.17188 4.84846 2.17188C3.90525 2.17188 3.14062 2.9365 3.14062 3.87971C3.14062 4.82292 3.90525 5.58754 4.84846 5.58754Z" fill="#FFAF32" stroke="#29292B"/>
<path d="M20.1471 5.37545H8.75554C8.36417 5.37545 8.04688 5.0582 8.04688 4.66679V3.09538C8.04688 2.70401 8.36413 2.38672 8.75554 2.38672H20.1471C20.5385 2.38672 20.8558 2.70397 20.8558 3.09538V4.66679C20.8557 5.05816 20.5385 5.37545 20.1471 5.37545Z" fill="#FFAF32" stroke="#29292B"/>
</svg>
