<svg width="16" height="22" viewBox="0 0 16 22" fill="none" xmlns="http://www.w3.org/2000/svg">
<path d="M15.4712 6.47092V6.4809H12.1229C11.0366 6.48109 10.1561 5.60052 10.1563 4.51426V1.17578H10.166L15.4712 6.47092Z" fill="#AEABEA" stroke="#29292B" stroke-width="0.8" stroke-linejoin="round"/>
<path d="M15.4656 6.56144V18.8677C15.4658 19.954 14.5852 20.8347 13.499 20.8344H2.54476C1.4585 20.8347 0.577741 19.954 0.578125 18.8677V3.13461C0.577741 2.04835 1.4585 1.16758 2.54476 1.16797H10.0476L10.1459 1.17776V4.51625C10.1455 5.60251 11.0263 6.48308 12.1125 6.48288H15.4606V6.56144H15.4656Z" fill="#FFAF32" stroke="#29292B" stroke-width="0.8" stroke-linejoin="round"/>
<path d="M8.034 7.97187H3.7026C3.43103 7.97187 3.21094 7.79281 3.21094 7.57187C3.21094 7.35094 3.43103 7.17188 3.7026 7.17188H8.034C8.30557 7.17188 8.52566 7.35094 8.52566 7.57187C8.52566 7.79281 8.30557 7.97187 8.034 7.97187Z" fill="#29292B"/>
<path d="M12.2869 10.7727H3.7026C3.43103 10.7727 3.21094 10.5936 3.21094 10.3727C3.21094 10.1517 3.43103 9.97266 3.7026 9.97266H12.2869C12.5584 9.97266 12.7785 10.1517 12.7785 10.3727C12.7785 10.5936 12.5584 10.7727 12.2869 10.7727Z" fill="#29292B"/>
<path d="M12.2869 13.5734H3.7026C3.43103 13.5734 3.21094 13.3944 3.21094 13.1734C3.21094 12.9525 3.43103 12.7734 3.7026 12.7734H12.2869C12.5584 12.7734 12.7785 12.9525 12.7785 13.1734C12.7785 13.3944 12.5584 13.5734 12.2869 13.5734Z" fill="#29292B"/>
<path d="M12.2869 16.3742H3.7026C3.43103 16.3742 3.21094 16.1952 3.21094 15.9742C3.21094 15.7533 3.43103 15.5742 3.7026 15.5742H12.2869C12.5584 15.5742 12.7785 15.7533 12.7785 15.9742C12.7785 16.1952 12.5584 16.3742 12.2869 16.3742Z" fill="#29292B"/>
</svg>
