<svg width="24" height="24" viewBox="0 0 24 24" fill="none" xmlns="http://www.w3.org/2000/svg">
<path d="M14.6106 6.77361H9.43852C9.2482 6.77361 9.09375 6.61916 9.09375 6.42884V4.53236C9.09365 2.91629 10.4084 1.60156 12.0245 1.60156C13.6407 1.60156 14.9553 2.91629 14.9553 4.53236V6.42874C14.9553 6.61916 14.8009 6.77361 14.6106 6.77361ZM9.78329 6.08397H14.2657V4.53236C14.2657 3.29662 13.2603 2.2911 12.0244 2.2911C10.7886 2.2911 9.78329 3.29662 9.78329 4.53236V6.08397Z" fill="#29292B"/>
<path d="M19.6089 8.15364H4.4375L5.47191 6.42969H18.5745L19.6089 8.15364Z" fill="#6B20F7" stroke="#29292B" stroke-width="0.8" stroke-linejoin="round"/>
<path d="M17.5399 5.19969L16.4989 9.6513L12.383 8.68879L13.424 4.23719L17.5399 5.19969Z" fill="#FFAF32" stroke="#29292B" stroke-width="0.6"/>
<path d="M11.292 3.32975L11.952 8.91307L6.7807 9.5244L6.12066 3.94108L11.292 3.32975Z" fill="#28B886" stroke="#29292B" stroke-width="0.6"/>
<path d="M13.6969 5.61714L14.9624 10.88L9.99054 12.0755L8.72502 6.81267L13.6969 5.61714Z" fill="#FF7456" stroke="#29292B" stroke-width="0.6"/>
<path d="M20.2111 19.8546C20.2441 20.4998 20.2607 20.8223 20.1331 21.065C20.047 21.2288 19.9172 21.3654 19.758 21.4598C19.5222 21.5997 19.1992 21.5997 18.5532 21.5997H5.4973C4.85135 21.5997 4.52838 21.5997 4.29252 21.4598C4.13339 21.3654 4.00356 21.2288 3.91747 21.065C3.78986 20.8223 3.8064 20.4998 3.83948 19.8547L4.43954 8.15234H19.6109L20.2111 19.8546Z" fill="#AEABEA" stroke="#29292B" stroke-width="0.8" stroke-linejoin="round"/>
<path d="M14.6115 10.9105C14.9924 10.9105 15.3012 10.6018 15.3012 10.2209C15.3012 9.84001 14.9924 9.53125 14.6115 9.53125C14.2306 9.53125 13.9219 9.84001 13.9219 10.2209C13.9219 10.6018 14.2306 10.9105 14.6115 10.9105Z" fill="white"/>
<path d="M14.6125 11.2563C14.0421 11.2563 13.5781 10.7923 13.5781 10.2219C13.5781 9.65147 14.0421 9.1875 14.6125 9.1875C15.183 9.1875 15.6469 9.65147 15.6469 10.2219C15.6469 10.7923 15.183 11.2563 14.6125 11.2563ZM14.6125 9.87714C14.4224 9.87714 14.2678 10.0318 14.2678 10.2219C14.2678 10.412 14.4224 10.5667 14.6125 10.5667C14.8026 10.5667 14.9573 10.412 14.9573 10.2219C14.9573 10.0318 14.8026 9.87714 14.6125 9.87714Z" fill="#29292B"/>
<path d="M9.43964 10.9105C9.82052 10.9105 10.1293 10.6018 10.1293 10.2209C10.1293 9.84001 9.82052 9.53125 9.43964 9.53125C9.05876 9.53125 8.75 9.84001 8.75 10.2209C8.75 10.6018 9.05876 10.9105 9.43964 10.9105Z" fill="white"/>
<path d="M9.44066 11.2563C8.87022 11.2563 8.40625 10.7923 8.40625 10.2219C8.40625 9.65147 8.87022 9.1875 9.44066 9.1875C10.0111 9.1875 10.4751 9.65147 10.4751 10.2219C10.4751 10.7923 10.0111 11.2563 9.44066 11.2563ZM9.44066 9.87714C9.25055 9.87714 9.09589 10.0318 9.09589 10.2219C9.09589 10.412 9.25055 10.5667 9.44066 10.5667C9.63077 10.5667 9.78543 10.412 9.78543 10.2219C9.78543 10.0318 9.63077 9.87714 9.44066 9.87714Z" fill="#29292B"/>
<path d="M12.0245 15.3907C10.4085 15.3907 9.09375 14.076 9.09375 12.4599V10.5635C9.09375 10.3732 9.2482 10.2188 9.43852 10.2188C9.62883 10.2188 9.78329 10.3732 9.78329 10.5635V12.4599C9.78329 13.6956 10.7887 14.7012 12.0245 14.7012C13.2604 14.7012 14.2658 13.6957 14.2658 12.4599V10.6965C14.2485 10.6556 14.2392 10.6106 14.2392 10.5635C14.2392 10.3732 14.3937 10.2188 14.584 10.2188H14.6106C14.8009 10.2188 14.9553 10.3732 14.9553 10.5635V12.4599C14.9553 14.076 13.6406 15.3907 12.0245 15.3907Z" fill="#29292B"/>
</svg>
