<svg width="24" height="24" viewBox="0 0 24 24" fill="none" xmlns="http://www.w3.org/2000/svg">
<g clip-path="url(#clip0_3831_26153)">
<path d="M19.3543 13.491V3.73864C19.3543 3.57232 19.2195 3.4375 19.0532 3.4375H5.50817C5.34185 3.4375 5.20703 3.57232 5.20703 3.73864V13.491L12.1048 14.1397L19.3543 13.491Z" fill="#AEABEA"/>
<path d="M5.20703 13.4922V20.2617C5.20703 20.428 5.34185 20.5628 5.50817 20.5628H19.0532C19.2195 20.5628 19.3543 20.428 19.3543 20.2617V13.4922H5.20703Z" fill="#28B886"/>
</g>
<rect x="5.70703" y="3.9375" width="13.1473" height="16.1265" rx="1.5" stroke="#29292B"/>
<path d="M15.7421 12.5858L14.1345 16.1206C13.5826 16.4063 12.956 16.5678 12.2917 16.5678C10.0746 16.5678 8.27734 14.7705 8.27734 12.5534C8.27734 12.4994 8.27875 12.4455 8.28085 12.392L12.2917 8.53906C13.4751 8.53906 14.5387 9.05118 15.2734 9.86575L15.7421 12.5858Z" fill="#FFAF32"/>
<path d="M13.082 13.4387C13.082 14.4722 13.4726 15.4144 14.1139 16.126C15.4039 15.4583 16.2856 14.1116 16.2856 12.5588C16.2856 11.5251 15.8948 10.5827 15.253 9.87109C13.9634 10.5393 13.082 11.886 13.082 13.4387Z" fill="white"/>
<path d="M8.27734 12.392C10.439 12.3901 12.2006 10.6802 12.2859 8.53906C10.124 8.54026 8.36205 10.2505 8.27734 12.392Z" fill="white"/>
<path d="M7.81746 3.28609L5.28609 5.81746C5.15032 5.95323 4.93021 5.95323 4.79444 5.81746L4.10183 5.1248C3.96606 4.98903 3.96606 4.76892 4.10183 4.63315L6.6332 2.10183C6.76896 1.96606 6.98908 1.96606 7.12485 2.10183L7.81751 2.79449C7.95323 2.93021 7.95323 3.15032 7.81746 3.28609Z" fill="#82A0A0"/>
<path d="M16.7542 3.28609L19.2855 5.81746C19.4213 5.95323 19.6414 5.95323 19.7772 5.81746L20.4699 5.1248C20.6056 4.98903 20.6056 4.76892 20.4699 4.63315L17.9385 2.10183C17.8027 1.96606 17.5826 1.96606 17.4468 2.10183L16.7542 2.79444C16.6184 2.93021 16.6184 3.15032 16.7542 3.28609Z" fill="#82A0A0"/>
<path d="M16.7542 20.7113L19.2855 18.18C19.4213 18.0442 19.6414 18.0442 19.7772 18.18L20.4699 18.8726C20.6056 19.0084 20.6056 19.2285 20.4699 19.3643L17.9385 21.8956C17.8027 22.0314 17.5826 22.0314 17.4468 21.8956L16.7542 21.203C16.6184 21.0672 16.6184 20.8471 16.7542 20.7113Z" fill="#82A0A0"/>
<path d="M7.81751 20.7113L5.28614 18.18C5.15037 18.0442 4.93026 18.0442 4.79449 18.18L4.10183 18.8726C3.96606 19.0084 3.96606 19.2285 4.10183 19.3643L6.6332 21.8956C6.76896 22.0314 6.98908 22.0314 7.12485 21.8956L7.81751 21.203C7.95328 21.0672 7.95328 20.8471 7.81751 20.7113Z" fill="#82A0A0"/>
<path d="M12.0556 6.60763H7.64171C7.23337 6.60763 6.90234 6.27661 6.90234 5.86827C6.90234 5.45993 7.23337 5.12891 7.64171 5.12891H12.0556C12.4639 5.12891 12.795 5.45993 12.795 5.86827C12.795 6.27661 12.4639 6.60763 12.0556 6.60763Z" fill="white"/>
<path d="M17.3793 5.4356H14.4502C14.2792 5.4356 14.1406 5.29699 14.1406 5.126C14.1406 4.95502 14.2792 4.81641 14.4502 4.81641H17.3793C17.5503 4.81641 17.6889 4.95502 17.6889 5.126C17.6889 5.29699 17.5503 5.4356 17.3793 5.4356Z" fill="white"/>
<path d="M17.3862 6.91998H16.0479C15.8769 6.91998 15.7383 6.78136 15.7383 6.61038C15.7383 6.4394 15.8769 6.30078 16.0479 6.30078H17.3862C17.5572 6.30078 17.6958 6.4394 17.6958 6.61038C17.6958 6.78136 17.5572 6.91998 17.3862 6.91998Z" fill="white"/>
<path d="M8.26695 16.9239H7.04007C6.86905 16.9239 6.73047 16.7853 6.73047 16.6143C6.73047 16.4433 6.86905 16.3047 7.04007 16.3047H8.26695C8.43797 16.3047 8.57654 16.4433 8.57654 16.6143C8.57654 16.7853 8.43797 16.9239 8.26695 16.9239Z" fill="white"/>
<path d="M11.7901 18.3731H7.04007C6.86905 18.3731 6.73047 18.2345 6.73047 18.0635C6.73047 17.8925 6.86905 17.7539 7.04007 17.7539H11.7901C11.9611 17.7539 12.0997 17.8925 12.0997 18.0635C12.0997 18.2345 11.9611 18.3731 11.7901 18.3731Z" fill="white"/>
<defs>
<clipPath id="clip0_3831_26153">
<rect x="5.20703" y="3.4375" width="14.1473" height="17.1265" rx="2" fill="white"/>
</clipPath>
</defs>
</svg>
