<svg width="24" height="24" viewBox="0 0 24 24" fill="none" xmlns="http://www.w3.org/2000/svg">
<path d="M17.6551 7.42229V10.4185H17.3597C17.2658 10.4185 17.1728 10.437 17.086 10.4729C16.9993 10.5088 16.9205 10.5615 16.8541 10.6279C16.7877 10.6943 16.735 10.7731 16.6991 10.8599C16.6631 10.9467 16.6447 11.0396 16.6447 11.1335V11.1773H15.3459C15.2196 11.1773 15.0946 11.2021 14.9779 11.2504C14.8612 11.2988 14.7552 11.3696 14.6659 11.4589C14.5766 11.5482 14.5057 11.6542 14.4574 11.7709C14.4091 11.8876 14.3842 12.0127 14.3843 12.139V18.339L9.83594 20.9648V11.9356L17.6543 7.42188L17.6551 7.42229Z" fill="#BD7B6C" stroke="#29292B" stroke-width="0.8" stroke-linejoin="round"/>
<path d="M22.0157 12.1374V20.5583C22.0157 20.8134 21.9144 21.058 21.7341 21.2384C21.5537 21.4188 21.3091 21.5202 21.0541 21.5204H15.3445C15.2182 21.5203 15.0931 21.4954 14.9764 21.4471C14.8597 21.3987 14.7537 21.3278 14.6644 21.2385C14.5751 21.1492 14.5043 21.0431 14.4559 20.9264C14.4076 20.8097 14.3828 20.6846 14.3828 20.5583V12.1374C14.3828 12.0112 14.4077 11.8861 14.456 11.7694C14.5043 11.6527 14.5751 11.5467 14.6644 11.4574C14.7537 11.3681 14.8598 11.2973 14.9764 11.2489C15.0931 11.2006 15.2182 11.1758 15.3445 11.1758H16.6432V11.1787C16.6432 11.2726 16.6617 11.3656 16.6976 11.4523C16.7335 11.5391 16.7862 11.6179 16.8526 11.6843C16.919 11.7507 16.9978 11.8034 17.0846 11.8393C17.1713 11.8752 17.2643 11.8937 17.3582 11.8937H19.0403C19.1342 11.8937 19.2272 11.8752 19.314 11.8393C19.4007 11.8034 19.4795 11.7507 19.5459 11.6843C19.6123 11.6179 19.665 11.5391 19.7009 11.4523C19.7369 11.3656 19.7553 11.2726 19.7553 11.1787V11.1758H21.0541C21.3091 11.1758 21.5537 11.2771 21.734 11.4575C21.9144 11.6378 22.0157 11.8824 22.0157 12.1374Z" fill="#98C1D5" stroke="#29292B" stroke-width="0.7"/>
<path d="M16.6406 11.1767V11.133C16.6406 11.0391 16.6591 10.9461 16.695 10.8593C16.7309 10.7726 16.7836 10.6937 16.85 10.6273C16.9164 10.5609 16.9952 10.5083 17.082 10.4724C17.1687 10.4364 17.2617 10.4179 17.3556 10.418H19.0377C19.1316 10.4179 19.2246 10.4364 19.3114 10.4724C19.3981 10.5083 19.4769 10.5609 19.5433 10.6273C19.6097 10.6937 19.6624 10.7726 19.6983 10.8593C19.7343 10.9461 19.7527 11.0391 19.7527 11.133V11.1796C19.7527 11.2735 19.7343 11.3665 19.6983 11.4533C19.6624 11.54 19.6097 11.6189 19.5433 11.6853C19.4769 11.7517 19.3981 11.8043 19.3114 11.8403C19.2246 11.8762 19.1316 11.8947 19.0377 11.8946H17.3556C17.2617 11.8947 17.1687 11.8762 17.082 11.8403C16.9952 11.8043 16.9164 11.7517 16.85 11.6853C16.7836 11.6189 16.7309 11.54 16.695 11.4533C16.6591 11.3665 16.6406 11.2735 16.6406 11.1796V11.1767Z" fill="#29292B" stroke="#29292B" stroke-width="0.7"/>
<path d="M17.049 15.8008H15.6906C15.5249 15.8008 15.3906 15.9351 15.3906 16.1008V17.4597C15.3906 17.6254 15.5249 17.7597 15.6906 17.7597H17.049C17.2146 17.7597 17.349 17.6254 17.349 17.4597V16.1008C17.349 15.9351 17.2146 15.8008 17.049 15.8008Z" fill="white"/>
<path d="M9.83437 11.9356V20.9648L2.01562 16.4506V7.42229L2.01646 7.42188L5.84854 9.63438L9.83437 11.9356Z" fill="#E08A5A" stroke="#29292B" stroke-width="0.8" stroke-linejoin="round"/>
<path d="M17.806 7.76661C17.9295 7.69516 18.0055 7.56337 18.0056 7.42072C18.0057 7.27808 17.9299 7.14617 17.8065 7.07453L10.0344 2.56036C9.91054 2.4884 9.75761 2.4882 9.63352 2.55985L1.81561 7.07402C1.69176 7.14553 1.61552 7.27771 1.61563 7.42072C1.61573 7.56373 1.69218 7.6958 1.81614 7.76712L9.63406 12.2653C9.75787 12.3366 9.91028 12.3364 10.0339 12.2648L17.806 7.76661Z" fill="#E08A5A" stroke="#29292B" stroke-width="0.8" stroke-linejoin="round"/>
<path d="M15.9877 15.0903H15.6823C15.6049 15.0903 15.5307 15.0596 15.4761 15.0049C15.4214 14.9502 15.3906 14.876 15.3906 14.7986V13.4245C15.3906 13.3471 15.4214 13.2729 15.4761 13.2182C15.5307 13.1635 15.6049 13.1328 15.6823 13.1328H17.056C17.1334 13.1328 17.2076 13.1635 17.2623 13.2182C17.317 13.2729 17.3477 13.3471 17.3477 13.4245V13.6207C17.3478 13.6897 17.3234 13.7565 17.2788 13.8093C17.2343 13.862 17.1725 13.8972 17.1044 13.9086C17.0364 13.9201 16.9664 13.907 16.9071 13.8718C16.8478 13.8365 16.8028 13.7814 16.7803 13.7161H15.974V14.507H15.9877C16.0651 14.507 16.1392 14.5377 16.1939 14.5924C16.2486 14.6471 16.2794 14.7213 16.2794 14.7986C16.2794 14.876 16.2486 14.9502 16.1939 15.0049C16.1392 15.0596 16.0651 15.0903 15.9877 15.0903Z" fill="white"/>
<path d="M15.9877 20.4336H15.6823C15.6049 20.4336 15.5307 20.4029 15.4761 20.3482C15.4214 20.2935 15.3906 20.2193 15.3906 20.142V18.7682C15.3906 18.6909 15.4214 18.6167 15.4761 18.562C15.5307 18.5073 15.6049 18.4766 15.6823 18.4766H17.056C17.1334 18.4766 17.2076 18.5073 17.2623 18.562C17.317 18.6167 17.3477 18.6909 17.3477 18.7682V19.0491C17.3484 19.0874 17.3416 19.1254 17.3276 19.1611C17.3136 19.1967 17.2927 19.2293 17.2661 19.2569C17.2395 19.2845 17.2078 19.3066 17.1727 19.3219C17.1375 19.3372 17.0998 19.3454 17.0615 19.3461C17.0232 19.3469 16.9851 19.34 16.9494 19.326C16.9138 19.312 16.8812 19.2911 16.8536 19.2645C16.826 19.238 16.804 19.2062 16.7886 19.1711C16.7733 19.136 16.7651 19.0982 16.7644 19.0599H15.974V19.8503H15.9877C16.0651 19.8503 16.1392 19.881 16.1939 19.9357C16.2486 19.9904 16.2794 20.0646 16.2794 20.142C16.2794 20.2193 16.2486 20.2935 16.1939 20.3482C16.1392 20.4029 16.0651 20.4336 15.9877 20.4336Z" fill="white"/>
<path d="M16.8712 15.0458C16.8329 15.0459 16.795 15.0384 16.7596 15.0237C16.7243 15.0091 16.6921 14.9876 16.6651 14.9605L16.1987 14.4947C16.1716 14.4676 16.1501 14.4354 16.1355 14.4C16.1208 14.3646 16.1133 14.3267 16.1133 14.2884C16.1133 14.2501 16.1208 14.2122 16.1355 14.1768C16.1501 14.1414 16.1716 14.1092 16.1987 14.0822C16.2258 14.0551 16.258 14.0336 16.2933 14.0189C16.3287 14.0043 16.3667 13.9967 16.405 13.9967C16.4433 13.9967 16.4812 14.0043 16.5166 14.0189C16.552 14.0336 16.5841 14.0551 16.6112 14.0822L16.8713 14.3419L17.7254 13.4878C17.7525 13.4607 17.7847 13.4392 17.82 13.4245C17.8554 13.4099 17.8934 13.4023 17.9317 13.4023C17.97 13.4023 18.0079 13.4099 18.0433 13.4245C18.0787 13.4392 18.1108 13.4607 18.1379 13.4878C18.165 13.5149 18.1865 13.547 18.2012 13.5824C18.2158 13.6178 18.2234 13.6557 18.2234 13.694C18.2234 13.7323 18.2158 13.7703 18.2012 13.8056C18.1865 13.841 18.165 13.8732 18.1379 13.9003L17.0775 14.9607C17.0504 14.9878 17.0183 15.0092 16.9829 15.0238C16.9474 15.0384 16.9095 15.0459 16.8712 15.0458Z" fill="#29292B"/>
<path d="M16.8712 20.4325C16.8329 20.4326 16.795 20.4251 16.7596 20.4104C16.7243 20.3958 16.6921 20.3743 16.6651 20.3472L16.1987 19.8814C16.1716 19.8543 16.1501 19.8221 16.1355 19.7867C16.1208 19.7514 16.1133 19.7134 16.1133 19.6751C16.1133 19.6368 16.1208 19.5989 16.1355 19.5635C16.1501 19.5281 16.1716 19.496 16.1987 19.4689C16.2258 19.4418 16.258 19.4203 16.2933 19.4056C16.3287 19.391 16.3667 19.3834 16.405 19.3834C16.4433 19.3834 16.4812 19.391 16.5166 19.4056C16.552 19.4203 16.5841 19.4418 16.6112 19.4689L16.8713 19.7287L17.7254 18.8745C17.7525 18.8474 17.7847 18.8259 17.82 18.8113C17.8554 18.7966 17.8934 18.7891 17.9317 18.7891C17.97 18.7891 18.0079 18.7966 18.0433 18.8113C18.0787 18.8259 18.1108 18.8474 18.1379 18.8745C18.165 18.9016 18.1865 18.9337 18.2012 18.9691C18.2158 19.0045 18.2234 19.0424 18.2234 19.0807C18.2234 19.119 18.2158 19.157 18.2012 19.1924C18.1865 19.2278 18.165 19.2599 18.1379 19.287L17.0775 20.3474C17.0504 20.3745 17.0183 20.3959 16.9829 20.4106C16.9474 20.4252 16.9095 20.4326 16.8712 20.4325Z" fill="#29292B"/>
<path d="M20.7175 14.4036H18.8854C18.8081 14.4036 18.7339 14.3729 18.6792 14.3182C18.6245 14.2635 18.5938 14.1893 18.5938 14.112C18.5938 14.0346 18.6245 13.9604 18.6792 13.9057C18.7339 13.851 18.8081 13.8203 18.8854 13.8203H20.7175C20.7949 13.8203 20.869 13.851 20.9237 13.9057C20.9784 13.9604 21.0092 14.0346 21.0092 14.112C21.0092 14.1893 20.9784 14.2635 20.9237 14.3182C20.869 14.3729 20.7949 14.4036 20.7175 14.4036Z" fill="#29292B"/>
<path d="M20.7175 17.0716H18.8854C18.8081 17.0716 18.7339 17.0409 18.6792 16.9862C18.6245 16.9315 18.5938 16.8573 18.5938 16.7799C18.5938 16.7026 18.6245 16.6284 18.6792 16.5737C18.7339 16.519 18.8081 16.4883 18.8854 16.4883H20.7175C20.7949 16.4883 20.869 16.519 20.9237 16.5737C20.9784 16.6284 21.0092 16.7026 21.0092 16.7799C21.0092 16.8573 20.9784 16.9315 20.9237 16.9862C20.869 17.0409 20.7949 17.0716 20.7175 17.0716Z" fill="#29292B"/>
<path d="M20.7175 19.7474H18.8854C18.8081 19.7474 18.7339 19.7167 18.6792 19.662C18.6245 19.6073 18.5938 19.5331 18.5938 19.4557C18.5938 19.3784 18.6245 19.3042 18.6792 19.2495C18.7339 19.1948 18.8081 19.1641 18.8854 19.1641H20.7175C20.7949 19.1641 20.869 19.1948 20.9237 19.2495C20.9784 19.3042 21.0092 19.3784 21.0092 19.4557C21.0092 19.5331 20.9784 19.6073 20.9237 19.662C20.869 19.7167 20.7949 19.7474 20.7175 19.7474Z" fill="#29292B"/>
</svg>
