<svg width="24" height="24" viewBox="0 0 24 24" fill="none" xmlns="http://www.w3.org/2000/svg">
<g clip-path="url(#clip0_3831_26369)">
<path d="M3.16406 12.0609H8.68013C8.68547 12.0609 8.70871 12.0628 8.73966 12.1009C8.77104 12.1396 8.79887 12.2048 8.79887 12.288V22.6045C8.79887 22.6877 8.77104 22.7529 8.73966 22.7915C8.70871 22.8297 8.68547 22.8316 8.68013 22.8316H3.16406C3.15872 22.8316 3.13548 22.8297 3.10453 22.7915C3.07315 22.7529 3.04531 22.6877 3.04531 22.6045V12.288C3.04531 12.2048 3.07315 12.1396 3.10453 12.1009C3.13548 12.0628 3.15872 12.0609 3.16406 12.0609Z" fill="#28B886" stroke="#29292B" stroke-width="0.7"/>
<path d="M14.3672 15.35H19.883C19.8884 15.35 19.9116 15.3519 19.9426 15.39C19.974 15.4287 20.0018 15.4938 20.0018 15.577C20.0018 15.577 20.0018 15.577 20.0018 15.577V22.6011C20.0018 22.6843 19.974 22.7495 19.9426 22.7881C19.9116 22.8262 19.8884 22.8281 19.8831 22.8281H14.3672C14.3618 22.8281 14.3386 22.8262 14.3077 22.7881C14.2763 22.7495 14.2484 22.6843 14.2484 22.6011V15.577C14.2484 15.4938 14.2763 15.4286 14.3077 15.39C14.3386 15.3519 14.3618 15.35 14.3672 15.35Z" fill="#FF7456" stroke="#29292B" stroke-width="0.7"/>
<path d="M9.04687 8.22891H13.9937C13.9991 8.22891 14.0223 8.23081 14.0533 8.26892C14.0846 8.30755 14.1125 8.37274 14.1125 8.45593V22.603C14.1125 22.6862 14.0846 22.7514 14.0533 22.79C14.0223 22.8281 13.9991 22.83 13.9937 22.83H9.04687C9.04153 22.83 9.01829 22.8281 8.98734 22.79C8.95596 22.7514 8.92812 22.6862 8.92812 22.603V8.45593C8.92812 8.37274 8.95596 8.30755 8.98734 8.26892C9.01829 8.23081 9.04153 8.22891 9.04687 8.22891Z" fill="#FFAF32" stroke="#29292B" stroke-width="0.7"/>
<path fill-rule="evenodd" clip-rule="evenodd" d="M0.367188 22.5977H22.6797C22.9379 22.5977 23.1484 22.8082 23.1484 23.0664V23.2921C23.1484 23.5502 22.9379 23.7608 22.6797 23.7608H0.367188C0.109 23.7608 -0.101562 23.5502 -0.101562 23.2921V23.0664C-0.101562 22.8082 0.109 22.5977 0.367188 22.5977Z" fill="#29292B"/>
<path fill-rule="evenodd" clip-rule="evenodd" d="M11.6536 0.851766L12.3242 2.61787C12.3444 2.67094 12.3913 2.70506 12.448 2.70783L14.3349 2.7998C14.394 2.8027 14.4426 2.83988 14.4609 2.89617C14.4792 2.95242 14.4617 3.01116 14.4156 3.04819L12.9431 4.23164C12.8989 4.26722 12.881 4.32239 12.8958 4.37719L13.3914 6.20011C13.407 6.2572 13.3866 6.315 13.3388 6.34973C13.2909 6.38452 13.2296 6.38602 13.1801 6.35358L11.5996 5.31891C11.5521 5.28783 11.494 5.28783 11.4466 5.31891L9.86602 6.35358C9.81652 6.38597 9.7553 6.38452 9.70744 6.34973C9.65959 6.31495 9.63924 6.25716 9.65476 6.20011L10.1503 4.37719C10.1652 4.32239 10.1473 4.26722 10.103 4.23169L8.63058 3.04823C8.58446 3.01116 8.56698 2.95247 8.58526 2.89622C8.60354 2.83992 8.65219 2.80275 8.7113 2.79984L10.5982 2.70788C10.6549 2.70511 10.7018 2.67103 10.722 2.61792L11.3925 0.851813C11.4135 0.7965 11.4639 0.761719 11.5231 0.761719C11.5823 0.761719 11.6326 0.796453 11.6536 0.851766Z" fill="#FFE177" stroke="#29292B" stroke-width="0.6"/>
</g>
<defs>
<clipPath id="clip0_3831_26369">
<rect width="24" height="24" fill="white"/>
</clipPath>
</defs>
</svg>
