<svg width="24" height="24" viewBox="0 0 24 24" fill="none" xmlns="http://www.w3.org/2000/svg">
<path d="M19.8684 15.9193L10.1578 7.97433C9.96894 7.82027 9.69087 7.84854 9.53681 8.03744C9.47267 8.1161 9.43758 8.21446 9.4375 8.31597V21.5576C9.43729 21.7522 9.56462 21.924 9.75087 21.9805C9.79238 21.993 9.83554 21.9992 9.87886 21.999C10.0265 21.9989 10.1643 21.9251 10.2461 21.8022L13.6466 16.7024H19.5895C19.8332 16.7021 20.0306 16.5042 20.0303 16.2605C20.0302 16.1282 19.9707 16.003 19.8684 15.9193Z" fill="#6355FF" stroke="#29292B" stroke-width="0.8"/>
<path d="M10.5195 6.4139C10.2758 6.4139 10.0781 6.21626 10.0781 5.97249V2.4414C10.0782 2.19763 10.2758 2 10.5195 2C10.7633 2 10.9609 2.19763 10.9609 2.4414V5.97249C10.9609 6.21626 10.7633 6.4139 10.5195 6.4139Z" fill="#AEABEA"/>
<path d="M6.98812 9.9453H3.45703C3.21326 9.9453 3.01562 9.74767 3.01562 9.5039C3.01562 9.26013 3.21326 9.0625 3.45703 9.0625H6.98812C7.23189 9.0625 7.42952 9.26013 7.42952 9.5039C7.42952 9.74767 7.23189 9.9453 6.98812 9.9453Z" fill="#AEABEA"/>
<path d="M17.5819 9.9453H14.0508C13.807 9.9453 13.6094 9.74767 13.6094 9.5039C13.6094 9.26013 13.807 9.0625 14.0508 9.0625H17.5819C17.8256 9.0625 18.0233 9.26013 18.0233 9.5039C18.0233 9.74767 17.8256 9.9453 17.5819 9.9453Z" fill="#AEABEA"/>
<path d="M8.02582 7.44765C7.90867 7.44786 7.79624 7.40151 7.71332 7.31875L5.21594 4.82407C5.0426 4.65072 5.0426 4.36975 5.21594 4.19641C5.38928 4.02307 5.67026 4.02307 5.8436 4.19641L8.33745 6.69379C8.51005 6.86593 8.51038 7.14541 8.33824 7.31801C8.25523 7.40122 8.14247 7.4479 8.02495 7.44769H8.02582V7.44765Z" fill="#AEABEA"/>
<path d="M5.52813 14.9377C5.28436 14.9381 5.08639 14.7408 5.08594 14.4971C5.08573 14.3795 5.13241 14.2668 5.21562 14.1838L7.713 11.6864C7.88833 11.5171 8.16777 11.5219 8.33713 11.6972C8.50232 11.8683 8.50232 12.1395 8.33713 12.3105L5.84328 14.8087C5.75969 14.8922 5.64618 14.9386 5.52813 14.9377Z" fill="#AEABEA"/>
<path d="M13.0164 7.44941C12.7726 7.44986 12.5747 7.25256 12.5742 7.00879C12.574 6.89127 12.6207 6.77851 12.7039 6.6955L15.1986 4.19813C15.374 4.02876 15.6534 4.03364 15.8228 4.20897C15.988 4.38003 15.988 4.6512 15.8228 4.82222L13.3289 7.3196C13.2461 7.40269 13.1337 7.44941 13.0164 7.44941Z" fill="#AEABEA"/>
</svg>
