<svg width="24" height="24" viewBox="0 0 24 24" fill="none" xmlns="http://www.w3.org/2000/svg">
<rect x="3.5" y="0.5" width="12.9205" height="18" fill="#98C1D5" stroke="#29292B"/>
<line x1="8.5" y1="4.5" x2="14.5" y2="4.5" stroke="#29292B" stroke-linecap="round"/>
<line x1="8.5" y1="7.5" x2="12.5" y2="7.5" stroke="#29292B" stroke-linecap="round"/>
<path d="M15.4553 22.5C19.3035 22.5 22.4183 19.3633 22.4183 15.5C22.4183 11.6367 19.3035 8.5 15.4553 8.5C11.607 8.5 8.49219 11.6367 8.49219 15.5C8.49219 19.3633 11.607 22.5 15.4553 22.5Z" fill="#FFAF32" stroke="#29292B"/>
<path d="M10.7212 16.374C10.8219 17.3179 11.3511 17.8232 12.2479 17.8335L13.3471 19.7041C13.616 20.1625 13.936 20.3641 14.3866 20.316C14.9498 20.2559 15.3107 19.8088 15.1116 19.1583L14.6651 17.6974C15.8092 17.7797 16.9895 18.0544 18.0706 18.5401C18.2253 18.9597 18.6117 19.1935 19.1011 19.1412C19.6954 19.0778 20.0493 18.6394 19.9863 18.049L19.3589 12.1683C19.2955 11.574 18.857 11.2201 18.2628 11.2835C17.7578 11.3374 17.4272 11.6633 17.3782 12.1243C16.2612 12.9584 14.7866 13.5714 13.5923 13.8285L12.1668 13.9806C11.0676 14.0978 10.5455 14.7271 10.6582 15.7836L10.7212 16.374ZM18.6346 18.1932L18.0072 12.3125C17.9836 12.0911 18.112 11.9321 18.3295 11.9089C18.547 11.8856 18.7099 12.0136 18.7335 12.235L19.3609 18.1157C19.3841 18.3332 19.2519 18.4927 19.0344 18.5159C18.8168 18.5391 18.6578 18.4107 18.6346 18.1932ZM14.0062 17.0449L13.7273 14.4308C15.0931 14.1241 16.3684 13.5952 17.4295 12.8259L17.9641 17.8365C16.7357 17.2958 15.3904 17.0583 14.0062 17.0449ZM12.5095 17.1928C11.7638 17.2724 11.4215 17.0103 11.3465 16.3073L11.2835 15.7169C11.2085 15.0138 11.4878 14.6855 12.2335 14.6059L13.1036 14.5131L13.3796 17.1L12.5095 17.1928ZM13.9115 19.471L12.8909 17.7846L13.9784 17.6686C14.0017 17.6661 14.0255 17.6675 14.0492 17.6689L14.5618 19.3073C14.6341 19.5432 14.5143 19.7092 14.3124 19.7307C14.1298 19.7502 14.0305 19.6665 13.9115 19.471Z" fill="#29292B"/>
<path d="M15.4631 22.5C19.3113 22.5 22.4261 19.3633 22.4261 15.5C22.4261 11.6367 19.3113 8.5 15.4631 8.5C11.6148 8.5 8.5 11.6367 8.5 15.5C8.5 19.3633 11.6148 22.5 15.4631 22.5Z" fill="#FFAF32" stroke="#29292B"/>
<path d="M14.0856 13.1513C14.0856 13.0559 14.1228 12.9644 14.1892 12.897C14.2555 12.8295 14.3455 12.7916 14.4394 12.7916H18.646C18.7724 12.7916 18.8892 12.8601 18.9525 12.9714C19.0156 13.0828 19.0156 13.2198 18.9525 13.3311C18.8892 13.4425 18.7724 13.511 18.646 13.511H14.4394C14.3455 13.511 14.2555 13.4731 14.1892 13.4056C14.1228 13.3382 14.0856 13.2467 14.0856 13.1513V13.1513ZM13.1585 12.1046C13.0923 12.0376 13.0026 12 12.9091 12C12.8156 12 12.726 12.0376 12.6597 12.1046L12.1289 12.6405L11.6018 12.1046C11.5357 12.0387 11.4468 12.0018 11.3541 12.0018C11.2615 12.0018 11.1726 12.0387 11.1065 12.1046C11.0406 12.172 11.0036 12.2631 11.0036 12.3582C11.0036 12.4532 11.0406 12.5444 11.1065 12.6117L11.6372 13.1513L11.1065 13.6873C11.0384 13.7549 11 13.8476 11 13.9444C11 14.0412 11.0384 14.1339 11.1065 14.2016C11.1726 14.2703 11.2631 14.3091 11.3577 14.3095C11.4498 14.3072 11.5373 14.2685 11.6018 14.2016L12.1289 13.6585L12.6597 14.2016C12.725 14.2694 12.814 14.3082 12.9073 14.3095C13.0015 14.3101 13.0921 14.2724 13.1589 14.2048C13.2257 14.1372 13.2633 14.0454 13.2632 13.9495C13.2631 13.8537 13.2254 13.7619 13.1585 13.6944L12.6314 13.1513L13.1585 12.6117C13.2244 12.5444 13.2614 12.4532 13.2614 12.3582C13.2614 12.2631 13.2244 12.172 13.1585 12.1046L13.1585 12.1046ZM18.6462 15.6693L14.4395 15.6692C14.3131 15.6692 14.1963 15.7378 14.1331 15.8491C14.0699 15.9604 14.0699 16.0975 14.1331 16.2088C14.1963 16.3201 14.3131 16.3886 14.4395 16.3886H18.6462C18.7726 16.3886 18.8894 16.3201 18.9526 16.2088C19.0158 16.0975 19.0158 15.9604 18.9526 15.8491C18.8894 15.7378 18.7726 15.6692 18.6462 15.6692V15.6693ZM18.6462 18.5469L14.4395 18.5468C14.3131 18.5468 14.1963 18.6153 14.1331 18.7266C14.0699 18.838 14.0699 18.975 14.1331 19.0863C14.1963 19.1977 14.3131 19.2662 14.4395 19.2662H18.6462C18.7726 19.2662 18.8894 19.1977 18.9526 19.0863C19.0158 18.975 19.0158 18.838 18.9526 18.7266C18.8894 18.6153 18.7726 18.5468 18.6462 18.5468V18.5469ZM12.1113 17.7699C11.8204 17.7699 11.5414 17.8874 11.3357 18.0964C11.13 18.3056 11.0145 18.5892 11.0145 18.8849C11.0145 19.1807 11.13 19.4642 11.3357 19.6734C11.5414 19.8825 11.8204 20 12.1113 20C12.4022 20 12.6812 19.8825 12.8868 19.6734C13.0925 19.4642 13.2081 19.1806 13.2081 18.8849C13.2081 18.5892 13.0925 18.3056 12.8868 18.0964C12.6811 17.8874 12.4022 17.7699 12.1113 17.7699ZM12.1113 14.8923C11.8204 14.8923 11.5414 15.0098 11.3357 15.2189C11.13 15.428 11.0145 15.7116 11.0145 16.0074C11.0145 16.3031 11.13 16.5867 11.3357 16.7958C11.5414 17.0049 11.8204 17.1224 12.1113 17.1224C12.4022 17.1224 12.6812 17.0049 12.8868 16.7958C13.0925 16.5867 13.2081 16.3031 13.2081 16.0074C13.2081 15.7116 13.0925 15.428 12.8868 15.2189C12.6811 15.0098 12.4022 14.8923 12.1113 14.8923Z" fill="#29292B"/>
<circle cx="6" cy="4" r="1" fill="#29292B"/>
<circle cx="6" cy="7" r="1" fill="#29292B"/>
</svg>
