<svg width="24" height="24" viewBox="0 0 24 24" fill="none" xmlns="http://www.w3.org/2000/svg">
<path d="M17.7527 5.85494L12.4917 11.1161C12.129 11.4787 11.541 11.4787 11.1783 11.1161L7.35013 7.28786C6.98746 6.92519 6.98746 6.33719 7.35013 5.97452L12.6111 0.71341C12.9738 0.350738 13.5618 0.350738 13.9245 0.71341L17.7527 4.5416C18.1153 4.90427 18.1153 5.49227 17.7527 5.85494Z" fill="white" stroke="#29292B" stroke-width="0.8"/>
<path d="M13.7912 7.15428C13.1072 7.83833 11.9975 7.83833 11.3135 7.15428C10.6295 6.47028 10.63 5.36113 11.314 4.67708C11.998 3.99308 13.1067 3.99303 13.7907 4.67708C14.4747 5.36113 14.4752 6.47028 13.7912 7.15428Z" fill="#FFAF32"/>
<path d="M11.9061 6.33572C11.7706 6.33572 11.6602 6.2258 11.6602 6.08981V5.39044C11.6602 5.2545 11.7702 5.14453 11.9061 5.14453C12.042 5.14453 12.152 5.25455 12.152 5.39044V5.84386L13.5444 5.84363C13.6801 5.84363 13.7903 5.95364 13.7903 6.08953C13.7903 6.22523 13.6803 6.33544 13.5444 6.33544L11.9061 6.33572Z" fill="white"/>
<path d="M20.8628 13.2705V22.2299C20.8628 22.9639 20.2678 23.5589 19.5338 23.5589H4.46967C3.73566 23.5589 3.14062 22.9639 3.14062 22.2299V13.2705C3.14062 12.5364 3.73566 11.9414 4.46967 11.9414H19.5338C20.2678 11.9415 20.8628 12.5365 20.8628 13.2705Z" fill="#AEABEA" stroke="#29292B" stroke-width="0.8"/>
<path d="M18.8657 11.9398V10.9027C18.8657 10.1733 18.2744 9.58203 17.545 9.58203H6.45737C5.728 9.58203 5.13672 10.1733 5.13672 10.9027V11.9398H18.8657Z" fill="#98C1D5" stroke="#29292B" stroke-width="0.8"/>
<path d="M8.05984 18.9867L9.10787 15.7305H9.86584L8.43746 19.7146H7.92576L8.05984 18.9867ZM7.09117 15.7305L8.13099 18.9867L8.27328 19.7146H7.75884L6.33594 15.7305H7.09117Z" fill="#29292B"/>
<path d="M9.99445 18.2671V18.2041C9.99445 17.9907 10.0255 17.7928 10.0875 17.6103C10.1495 17.4261 10.2389 17.2665 10.3556 17.1315C10.4742 16.9947 10.6183 16.8889 10.788 16.8141C10.9595 16.7374 11.1528 16.6991 11.3681 16.6991C11.5852 16.6991 11.7786 16.7374 11.9482 16.8141C12.1197 16.8889 12.2647 16.9947 12.3833 17.1315C12.5019 17.2665 12.5922 17.4261 12.6542 17.6103C12.7162 17.7928 12.7472 17.9907 12.7472 18.2041V18.2671C12.7472 18.4805 12.7162 18.6784 12.6542 18.8609C12.5922 19.0433 12.5019 19.2029 12.3833 19.3397C12.2647 19.4747 12.1206 19.5805 11.9509 19.6571C11.7813 19.7319 11.5888 19.7693 11.3736 19.7693C11.1565 19.7693 10.9622 19.7319 10.7907 19.6571C10.6211 19.5805 10.477 19.4747 10.3584 19.3397C10.2398 19.2029 10.1495 19.0433 10.0875 18.8609C10.0255 18.6784 9.99445 18.4805 9.99445 18.2671ZM10.6539 18.2041V18.2671C10.6539 18.4002 10.6676 18.5261 10.695 18.6447C10.7223 18.7633 10.7652 18.8672 10.8236 18.9566C10.8819 19.046 10.9567 19.1163 11.0479 19.1673C11.1392 19.2184 11.2477 19.244 11.3736 19.244C11.4958 19.244 11.6016 19.2184 11.691 19.1673C11.7822 19.1163 11.857 19.046 11.9154 18.9566C11.9737 18.8672 12.0166 18.7633 12.044 18.6447C12.0732 18.5261 12.0878 18.4002 12.0878 18.2671V18.2041C12.0878 18.0728 12.0732 17.9487 12.044 17.832C12.0166 17.7134 11.9728 17.6085 11.9126 17.5173C11.8543 17.4261 11.7795 17.355 11.6883 17.3039C11.5989 17.251 11.4921 17.2245 11.3681 17.2245C11.2441 17.2245 11.1364 17.251 11.0452 17.3039C10.9558 17.355 10.8819 17.4261 10.8236 17.5173C10.7652 17.6085 10.7223 17.7134 10.695 17.832C10.6676 17.9487 10.6539 18.0728 10.6539 18.2041Z" fill="#29292B"/>
<path d="M14.6572 16.7539V17.2355H12.988V16.7539H14.6572ZM13.4696 16.0287H14.1291V18.8964C14.1291 18.9876 14.1419 19.0579 14.1674 19.1071C14.1948 19.1546 14.2322 19.1865 14.2796 19.2029C14.327 19.2193 14.3827 19.2275 14.4465 19.2275C14.4921 19.2275 14.5359 19.2248 14.5778 19.2193C14.6198 19.2139 14.6536 19.2084 14.6791 19.2029L14.6818 19.7064C14.6271 19.7228 14.5633 19.7374 14.4903 19.7502C14.4191 19.7629 14.337 19.7693 14.244 19.7693C14.0926 19.7693 13.9585 19.7429 13.8418 19.69C13.725 19.6353 13.6338 19.5468 13.5681 19.4246C13.5025 19.3023 13.4696 19.14 13.4696 18.9375V16.0287Z" fill="#29292B"/>
<path d="M16.4714 19.7693C16.2525 19.7693 16.0546 19.7338 15.8776 19.6626C15.7025 19.5896 15.5529 19.4884 15.4289 19.3589C15.3066 19.2294 15.2127 19.077 15.147 18.9019C15.0813 18.7268 15.0485 18.538 15.0485 18.3355V18.226C15.0485 17.9943 15.0822 17.7846 15.1497 17.5967C15.2172 17.4088 15.3112 17.2482 15.4316 17.1151C15.552 16.9801 15.6943 16.877 15.8585 16.8059C16.0226 16.7347 16.2005 16.6991 16.3921 16.6991C16.6037 16.6991 16.7888 16.7347 16.9475 16.8059C17.1062 16.877 17.2376 16.9773 17.3416 17.1069C17.4474 17.2346 17.5258 17.3869 17.5769 17.5638C17.6298 17.7408 17.6562 17.936 17.6562 18.1494V18.4313H15.3687V17.9579H17.005V17.9059C17.0013 17.7873 16.9776 17.676 16.9339 17.572C16.8919 17.4681 16.8271 17.3841 16.7396 17.3203C16.652 17.2564 16.5353 17.2245 16.3893 17.2245C16.2799 17.2245 16.1823 17.2482 16.0965 17.2957C16.0126 17.3413 15.9424 17.4079 15.8858 17.4954C15.8293 17.583 15.7855 17.6888 15.7545 17.8128C15.7253 17.9351 15.7107 18.0728 15.7107 18.226V18.3355C15.7107 18.465 15.728 18.5854 15.7627 18.6967C15.7992 18.8061 15.8521 18.9019 15.9214 18.984C15.9907 19.0661 16.0746 19.1308 16.1731 19.1783C16.2717 19.2239 16.3838 19.2467 16.5097 19.2467C16.6684 19.2467 16.8098 19.2148 16.9339 19.1509C17.0579 19.0871 17.1655 18.9968 17.2567 18.88L17.6043 19.2166C17.5404 19.3096 17.4574 19.399 17.3553 19.4848C17.2531 19.5687 17.1281 19.6371 16.9804 19.69C16.8344 19.7429 16.6648 19.7693 16.4714 19.7693Z" fill="#29292B"/>
</svg>
